<?xml version="1.0" encoding="UTF-8"?>
<!DOCTYPE svg PUBLIC "-//W3C//DTD SVG 1.1//EN" "http://www.w3.org/Graphics/SVG/1.1/DTD/svg11.dtd">
<!-- Creator: CorelDRAW X8 -->
<svg xmlns="http://www.w3.org/2000/svg" xml:space="preserve" width="8.98411in" height="10.3151in" version="1.1" style="shape-rendering:geometricPrecision; text-rendering:geometricPrecision; image-rendering:optimizeQuality; fill-rule:evenodd; clip-rule:evenodd"
viewBox="0 0 6338 7277"
 xmlns:xlink="http://www.w3.org/1999/xlink">
 <defs>
  <style type="text/css">
   <![CDATA[
    .str1 {stroke:#848688;stroke-width:29.3949}
    .str3 {stroke:#373435;stroke-width:29.3949}
    .str8 {stroke:#FEFEFE;stroke-width:39.1942}
    .str4 {stroke:#FEFEFE;stroke-width:39.1942}
    .str9 {stroke:#FEFEFE;stroke-width:39.1942}
    .str12 {stroke:#FEFEFE;stroke-width:39.1942}
    .str6 {stroke:#FEFEFE;stroke-width:39.1942}
    .str11 {stroke:#FEFEFE;stroke-width:39.1942}
    .str5 {stroke:#FEFEFE;stroke-width:39.1942}
    .str7 {stroke:#FEFEFE;stroke-width:39.1942}
    .str10 {stroke:#FEFEFE;stroke-width:39.1942}
    .str2 {stroke:#848688;stroke-width:29.3949}
    .str0 {stroke:#848688;stroke-width:29.3949}
    .fil0 {fill:none}
    .fil5 {fill:none;fill-rule:nonzero}
    .fil1 {fill:#FFCB29}
    .fil7 {fill:#9999FF}
    .fil2 {fill:#99FF99}
    .fil4 {fill:#CCCCCC}
    .fil3 {fill:#FF9999}
    .fil6 {fill:#373435;fill-rule:nonzero}
   ]]>
  </style>
 </defs>
 <g id="Layer_x0020_1">
  <metadata id="CorelCorpID_0Corel-Layer"/>
  <g id="_2633035137776">
   <g>
    <line class="fil0 str0" x1="2925" y1="2079" x2="976" y2= "2079" />
   </g>
   <g>
    <line class="fil0 str0" x1="3438" y1="3488" x2="5375" y2= "3488" />
   </g>
   <polygon class="fil1 str1" points="3181,1822 3310,1950 3438,2079 3310,2207 3181,2335 3053,2207 2925,2079 3053,1950 "/>
   <polygon class="fil1 str1" points="3181,3231 3310,3359 3438,3488 3310,3616 3181,3744 3053,3616 2925,3488 3053,3359 "/>
   <polygon class="fil1 str1" points="3181,4640 3310,4769 3438,4897 3310,5025 3181,5153 3053,5025 2925,4897 3053,4769 "/>
   <g>
    <line class="fil0 str2" x1="3181" y1="808" x2="3181" y2= "1822" />
   </g>
   <g>
    <line class="fil0 str2" x1="3181" y1="2335" x2="3181" y2= "3231" />
   </g>
   <g>
    <line class="fil0 str2" x1="3181" y1="3744" x2="3181" y2= "4640" />
   </g>
   <circle class="fil2 str3" cx="837" cy="2079" r="139"/>
   <circle class="fil3 str3" cx="5514" cy="3488" r="139"/>
   <circle class="fil4 str3" cx="3181" cy="669" r="139"/>
   <g>
    <path class="fil5 str4" d="M2423 1226c1,2 2,4 2,7 1,3 1,6 1,9 0,4 0,7 -1,10 -1,3 -2,6 -4,9 -2,2 -4,5 -6,7 -3,3 -5,5 -8,8 -3,2 -5,4 -8,7 -2,2 -4,5 -6,7 -2,3 -3,6 -4,9 -1,4 -2,7 -2,11 0,4 1,8 2,11 2,4 4,7 6,9 3,2 6,4 9,5 4,1 8,2 12,2 7,0 14,-1 20,-4 6,-2 12,-6 17,-10l0 12c-5,4 -11,7 -17,9 -6,2 -13,3 -20,3 -6,0 -11,0 -16,-2 -5,-2 -9,-4 -13,-7 -3,-3 -6,-7 -8,-11 -2,-5 -3,-10 -3,-16 0,-4 1,-8 2,-12 1,-3 3,-7 5,-10 2,-3 4,-6 6,-8 3,-3 5,-6 8,-8 4,-4 7,-7 10,-10 2,-3 5,-5 6,-7 1,-2 2,-4 3,-6 1,-2 1,-5 1,-8 0,-3 0,-6 -1,-9 -1,-3 -1,-5 -2,-7l9 0zm-3 -48c2,0 4,1 6,3 2,1 3,4 3,6 0,3 -1,5 -3,7 -2,2 -4,2 -6,2 -3,0 -5,0 -7,-2 -2,-2 -3,-4 -3,-7 0,-2 1,-5 3,-6 2,-2 4,-3 7,-3z"/>
   </g>
   <g>
    <polygon id="1" class="fil5 str4" points="2482,1298 2482,1133 2559,1133 2559,1143 2493,1143 2493,1209 2554,1209 2554,1220 2493,1220 2493,1287 2563,1287 2563,1298 "/>
   </g>
   <g>
    <path id="2" class="fil5 str4" d="M2591 1292l0 -12c4,3 9,6 14,8 6,2 11,3 15,3 19,0 28,-8 28,-23 0,-5 -2,-9 -6,-13 -4,-4 -11,-8 -20,-12 -11,-4 -19,-9 -24,-15 -4,-5 -7,-11 -7,-19 0,-9 4,-17 11,-23 8,-6 17,-9 27,-9 11,0 19,2 26,6l0 12c-8,-5 -17,-8 -27,-8 -7,0 -14,2 -18,6 -5,4 -8,9 -8,15 0,6 2,11 5,14 3,4 10,8 20,12 12,6 20,11 25,15 5,5 7,11 7,19 0,9 -4,17 -11,23 -7,6 -16,9 -29,9 -11,0 -20,-2 -28,-8z"/>
   </g>
   <g>
    <path id="3" class="fil5 str4" d="M2900 1298l0 -71c0,-15 -2,-25 -7,-31 -4,-6 -12,-9 -22,-9 -9,0 -17,4 -24,12 -6,8 -10,18 -10,30l0 69 -10 0 0 -72c0,-26 -10,-39 -30,-39 -10,0 -18,4 -24,12 -6,8 -10,18 -10,31l0 68 -10 0 0 -118 10 0 0 20 1 0c8,-15 20,-23 36,-23 8,0 16,3 22,8 6,4 10,11 12,19 4,-8 9,-15 16,-20 7,-4 14,-7 22,-7 26,0 39,16 39,48l0 73 -11 0z"/>
   </g>
   <g>
    <path id="4" class="fil5 str4" d="M2993 1300c-17,0 -30,-5 -40,-17 -10,-11 -15,-26 -15,-44 0,-19 5,-34 15,-45 11,-11 24,-17 42,-17 16,0 30,6 39,17 10,11 15,26 15,45 0,18 -5,33 -15,44 -10,12 -23,17 -41,17zm1 -113c-14,0 -25,4 -33,14 -8,9 -12,22 -12,39 0,15 4,27 12,37 8,9 19,14 33,14 14,0 25,-5 32,-14 8,-9 12,-22 12,-38 0,-17 -4,-30 -12,-39 -7,-9 -18,-13 -32,-13z"/>
   </g>
   <g>
    <path id="5" class="fil5 str4" d="M3161 1298l0 -22 0 0c-4,8 -9,13 -17,18 -7,4 -16,6 -25,6 -15,0 -27,-5 -36,-15 -9,-11 -13,-26 -13,-44 0,-19 5,-34 15,-46 9,-12 22,-18 38,-18 18,0 31,7 38,22l0 0 0 -75 11 0 0 174 -11 0zm0 -72c0,-11 -3,-20 -10,-28 -7,-7 -16,-11 -28,-11 -12,0 -22,4 -30,14 -8,9 -12,22 -12,39 0,16 3,29 10,37 8,9 17,14 28,14 14,0 24,-4 31,-13 8,-8 11,-18 11,-30l0 -22z"/>
   </g>
   <g>
    <path id="6" class="fil5 str4" d="M3287 1298l0 -22 0 0c-8,16 -21,24 -38,24 -28,0 -42,-17 -42,-52l0 -68 11 0 0 65c0,16 3,28 8,35 5,7 13,11 25,11 11,0 19,-4 26,-12 7,-8 10,-19 10,-32l0 -67 11 0 0 118 -11 0z"/>
   </g>
   <g>
    <polygon id="7" class="fil5 str4" points="3336,1298 3336,1124 3346,1124 3346,1298 "/>
   </g>
   <g>
    <path id="8" class="fil5 str4" d="M3454 1298l0 -24 0 0c-4,8 -10,14 -17,19 -7,5 -15,7 -24,7 -11,0 -20,-3 -26,-9 -7,-6 -10,-14 -10,-24 0,-20 14,-33 41,-37l36 -5c0,-26 -9,-38 -28,-38 -13,0 -26,5 -38,15l0 -12c4,-4 10,-7 18,-9 7,-3 14,-4 21,-4 12,0 21,4 28,11 6,8 10,19 10,33l0 77 -11 0zm-32 -59c-13,2 -21,5 -26,9 -5,4 -8,10 -8,19 0,7 3,12 7,17 5,4 11,7 20,7 11,0 20,-4 28,-13 7,-8 11,-19 11,-32l0 -12 -32 5z"/>
   </g>
   <g>
    <path id="9" class="fil5 str4" d="M3555 1191c-3,-2 -7,-4 -12,-4 -9,0 -17,5 -23,15 -7,9 -10,23 -10,40l0 56 -10 0 0 -118 10 0 0 26 1 0c2,-9 7,-16 13,-21 5,-5 12,-7 20,-7 4,0 8,0 11,2l0 11z"/>
   </g>
   <g>
    <path id="10" class="fil5 str4" d="M3671 1322c-4,10 -9,18 -14,23 -6,5 -12,8 -21,8 -3,0 -6,-1 -9,-2l0 -10c3,1 6,1 10,1 9,0 17,-6 22,-19l11 -26 -44 -117 11 0 36 96c1,2 1,3 1,4 1,2 1,3 1,4l1 0 3 -8 38 -96 11 0 -57 142z"/>
   </g>
   <g>
    <path id="11" class="fil5 str4" d="M3893 1298l0 -69c0,-28 -10,-42 -31,-42 -11,0 -20,4 -28,12 -7,9 -10,19 -10,31l0 68 -11 0 0 -118 11 0 0 21 0 0c9,-16 22,-24 40,-24 13,0 23,4 29,13 7,8 11,20 11,36l0 72 -11 0z"/>
   </g>
   <g>
    <path id="12" class="fil5 str4" d="M3986 1300c-17,0 -31,-5 -41,-17 -10,-11 -15,-26 -15,-44 0,-19 6,-34 16,-45 11,-11 24,-17 41,-17 17,0 30,6 40,17 10,11 15,26 15,45 0,18 -5,33 -15,44 -10,12 -24,17 -41,17zm1 -113c-14,0 -25,4 -33,14 -8,9 -13,22 -13,39 0,15 4,27 12,37 9,9 20,14 33,14 15,0 25,-5 33,-14 8,-9 12,-22 12,-38 0,-17 -4,-30 -12,-39 -7,-9 -18,-13 -32,-13z"/>
   </g>
   <g>
    <path id="13" class="fil5 str4" d="M2137 1610l0 -21 -1 0c-3,7 -9,13 -17,18 -7,4 -16,6 -25,6 -14,0 -26,-5 -35,-16 -9,-10 -14,-25 -14,-43 0,-19 5,-35 15,-46 10,-12 23,-18 39,-18 17,0 30,7 37,22l1 0 0 -76 10 0 0 174 -10 0zm0 -71c0,-11 -4,-20 -11,-28 -6,-8 -16,-11 -27,-11 -13,0 -23,4 -31,14 -8,9 -12,22 -12,39 0,16 4,28 11,37 7,9 16,14 28,14 13,0 24,-5 31,-13 7,-8 11,-18 11,-30l0 -22z"/>
   </g>
   <g>
    <path id="14" class="fil5 str4" d="M2188 1552c0,16 3,29 11,38 7,9 18,14 31,14 13,0 26,-5 38,-15l0 11c-12,9 -26,13 -41,13 -15,0 -27,-5 -36,-16 -10,-11 -14,-26 -14,-46 0,-17 5,-32 14,-43 10,-12 23,-18 38,-18 15,0 26,5 34,15 8,11 12,25 12,42l0 5 -87 0zm76 -10c-1,-13 -4,-24 -10,-31 -6,-8 -15,-11 -25,-11 -11,0 -20,3 -27,11 -8,7 -12,18 -14,31l76 0z"/>
   </g>
   <g>
    <path id="15" class="fil5 str4" d="M2315 1589l-1 0 0 75 -10 0 0 -171 10 0 0 24 1 0c4,-9 10,-15 18,-20 8,-5 16,-7 26,-7 15,0 26,5 35,15 8,11 12,25 12,42 0,20 -4,36 -14,48 -10,12 -22,18 -38,18 -18,0 -31,-8 -39,-24zm-1 -43l0 15c0,11 4,21 12,30 7,8 17,13 29,13 12,0 22,-6 29,-16 8,-10 11,-24 11,-40 0,-15 -3,-27 -10,-35 -7,-9 -16,-13 -28,-13 -13,0 -24,4 -31,13 -8,10 -12,20 -12,33z"/>
   </g>
   <g>
    <path id="16" class="fil5 str4" d="M2438 1552c0,16 4,29 11,38 8,9 18,14 31,14 13,0 26,-5 39,-15l0 11c-13,9 -26,13 -41,13 -15,0 -28,-5 -37,-16 -9,-11 -14,-26 -14,-46 0,-17 5,-32 15,-43 9,-12 22,-18 38,-18 14,0 26,5 33,15 8,11 12,25 12,42l0 5 -87 0zm76 -10c0,-13 -4,-24 -10,-31 -6,-8 -14,-11 -25,-11 -11,0 -20,3 -27,11 -7,7 -12,18 -13,31l75 0z"/>
   </g>
   <g>
    <path id="17" class="fil5 str4" d="M2634 1610l0 -68c0,-28 -10,-42 -30,-42 -12,0 -21,4 -28,12 -8,8 -11,19 -11,31l0 67 -11 0 0 -117 11 0 0 21 0 0c9,-16 22,-24 40,-24 13,0 23,4 30,13 6,8 10,20 10,36l0 71 -11 0z"/>
   </g>
   <g>
    <path id="18" class="fil5 str4" d="M2764 1610l0 -21 -1 0c-4,7 -9,13 -17,18 -7,4 -16,6 -25,6 -15,0 -27,-5 -36,-16 -9,-10 -13,-25 -13,-43 0,-19 5,-35 15,-46 10,-12 23,-18 38,-18 18,0 31,7 38,22l1 0 0 -76 10 0 0 174 -10 0zm0 -71c0,-11 -4,-20 -11,-28 -7,-8 -16,-11 -28,-11 -12,0 -22,4 -30,14 -8,9 -12,22 -12,39 0,16 3,28 11,37 7,9 16,14 27,14 14,0 24,-5 32,-13 7,-8 11,-18 11,-30l0 -22z"/>
   </g>
   <g>
    <path id="19" class="fil5 str4" d="M2814 1552c0,16 4,29 12,38 7,9 17,14 30,14 13,0 26,-5 39,-15l0 11c-12,9 -26,13 -41,13 -15,0 -27,-5 -37,-16 -9,-11 -14,-26 -14,-46 0,-17 5,-32 15,-43 10,-12 22,-18 38,-18 15,0 26,5 34,15 7,11 11,25 11,42l0 5 -87 0zm76 -10c0,-13 -3,-24 -9,-31 -6,-8 -15,-11 -25,-11 -11,0 -21,3 -28,11 -7,7 -11,18 -13,31l75 0z"/>
   </g>
   <g>
    <path id="20" class="fil5 str4" d="M3078 1610l0 -21 0 0c-4,7 -10,13 -17,18 -8,4 -16,6 -25,6 -15,0 -27,-5 -36,-16 -9,-10 -14,-25 -14,-43 0,-19 5,-35 15,-46 10,-12 23,-18 39,-18 18,0 30,7 38,22l0 0 0 -76 11 0 0 174 -11 0zm0 -71c0,-11 -3,-20 -10,-28 -7,-8 -16,-11 -28,-11 -12,0 -22,4 -30,14 -8,9 -12,22 -12,39 0,16 3,28 10,37 8,9 17,14 28,14 14,0 24,-5 31,-13 8,-8 11,-18 11,-30l0 -22z"/>
   </g>
   <g>
    <path id="21" class="fil5 str4" d="M3129 1552c0,16 4,29 11,38 8,9 18,14 31,14 13,0 26,-5 39,-15l0 11c-13,9 -26,13 -41,13 -15,0 -28,-5 -37,-16 -9,-11 -14,-26 -14,-46 0,-17 5,-32 15,-43 10,-12 22,-18 38,-18 14,0 26,5 33,15 8,11 12,25 12,42l0 5 -87 0zm76 -10c0,-13 -4,-24 -10,-31 -6,-8 -14,-11 -25,-11 -11,0 -20,3 -27,11 -7,7 -12,18 -13,31l75 0z"/>
   </g>
   <g>
    <path id="22" class="fil5 str4" d="M3357 1613c-17,0 -31,-5 -41,-17 -10,-11 -15,-26 -15,-44 0,-19 6,-34 16,-45 10,-12 24,-17 41,-17 17,0 30,5 40,16 10,11 15,26 15,46 0,18 -5,33 -15,44 -10,12 -24,17 -41,17zm1 -113c-14,0 -25,4 -33,14 -9,9 -13,22 -13,38 0,16 4,28 12,38 8,9 19,14 33,14 14,0 25,-5 33,-14 8,-9 11,-22 11,-38 0,-17 -3,-30 -11,-39 -8,-9 -18,-13 -32,-13z"/>
   </g>
   <g>
    <path id="23" class="fil5 str4" d="M3488 1609c-5,2 -10,4 -15,4 -18,0 -26,-11 -26,-32l0 -79 -21 0 0 -9 21 0 0 -31c1,0 3,-1 5,-2 2,0 4,-1 5,-1l0 34 31 0 0 9 -31 0 0 78c0,8 2,14 4,18 3,3 7,5 13,5 5,0 9,-1 14,-4l0 10z"/>
   </g>
   <g>
    <path id="24" class="fil5 str4" d="M3567 1504c-4,-3 -8,-4 -12,-4 -10,0 -17,5 -24,14 -6,10 -9,24 -9,41l0 55 -10 0 0 -117 10 0 0 26 0 0c3,-9 7,-16 13,-21 6,-5 13,-8 20,-8 5,0 9,1 12,3l0 11z"/>
   </g>
   <g>
    <path id="25" class="fil5 str4" d="M3632 1613c-18,0 -31,-5 -41,-17 -10,-11 -15,-26 -15,-44 0,-19 5,-34 16,-45 10,-12 24,-17 41,-17 17,0 30,5 40,16 9,11 14,26 14,46 0,18 -5,33 -15,44 -10,12 -23,17 -40,17zm0 -113c-13,0 -24,4 -33,14 -8,9 -12,22 -12,38 0,16 4,28 12,38 8,9 19,14 33,14 14,0 25,-5 33,-14 7,-9 11,-22 11,-38 0,-17 -4,-30 -11,-39 -8,-9 -19,-13 -33,-13z"/>
   </g>
   <g>
    <path id="26" class="fil5 str4" d="M3775 1605l0 -13c4,4 8,7 14,9 6,2 11,3 15,3 18,0 28,-8 28,-23 0,-5 -2,-10 -6,-13 -5,-4 -11,-8 -20,-12 -12,-5 -19,-10 -24,-15 -5,-5 -7,-12 -7,-19 0,-10 4,-17 11,-23 7,-6 16,-9 27,-9 10,0 19,2 26,6l0 12c-9,-6 -18,-8 -27,-8 -8,0 -14,2 -19,6 -4,4 -7,9 -7,15 0,6 2,10 5,14 3,3 9,7 19,12 13,5 21,10 26,15 4,5 7,11 7,19 0,9 -4,17 -11,23 -7,6 -17,9 -29,9 -11,0 -21,-2 -28,-8z"/>
   </g>
   <g>
    <path id="27" class="fil5 str4" d="M3948 1605c-8,6 -19,8 -31,8 -16,0 -29,-5 -39,-16 -10,-11 -14,-26 -14,-43 0,-19 5,-34 16,-46 11,-12 25,-18 43,-18 9,0 17,2 26,5l0 12c-9,-5 -18,-7 -28,-7 -14,0 -25,5 -33,14 -9,10 -13,23 -13,39 0,15 4,27 11,37 8,9 19,14 31,14 12,0 23,-4 31,-10l0 11z"/>
   </g>
   <g>
    <path id="28" class="fil5 str4" d="M4032 1504c-4,-3 -8,-4 -12,-4 -10,0 -17,5 -24,14 -6,10 -9,24 -9,41l0 55 -11 0 0 -117 11 0 0 26 0 0c3,-9 7,-16 13,-21 6,-5 13,-8 20,-8 5,0 8,1 12,3l0 11z"/>
   </g>
   <g>
    <path id="29" class="fil5 str4" d="M4059 1463c-2,0 -4,-1 -6,-2 -2,-2 -2,-4 -2,-7 0,-2 0,-4 2,-6 2,-1 4,-2 6,-2 3,0 5,0 6,2 2,2 3,4 3,6 0,3 -1,5 -2,7 -2,1 -4,2 -7,2zm-5 147l0 -117 11 0 0 117 -11 0z"/>
   </g>
   <g>
    <path id="30" class="fil5 str4" d="M4113 1589l0 0 0 75 -11 0 0 -171 11 0 0 24 0 0c5,-9 11,-15 18,-20 8,-5 17,-7 26,-7 15,0 27,5 35,15 9,11 13,25 13,42 0,20 -5,36 -15,48 -9,12 -22,18 -38,18 -17,0 -30,-8 -39,-24zm0 -43l0 15c0,11 4,21 11,30 7,8 17,13 29,13 12,0 22,-6 29,-16 8,-10 12,-24 12,-40 0,-15 -4,-27 -11,-35 -6,-9 -16,-13 -27,-13 -14,0 -24,4 -32,13 -7,10 -11,20 -11,33z"/>
   </g>
   <g>
    <path id="31" class="fil5 str4" d="M4281 1609c-6,2 -11,4 -16,4 -17,0 -26,-11 -26,-32l0 -79 -21 0 0 -9 21 0 0 -31c2,0 3,-1 5,-2 2,0 4,-1 5,-1l0 34 32 0 0 9 -32 0 0 78c0,8 2,14 4,18 3,3 7,5 13,5 5,0 9,-1 15,-4l0 10z"/>
   </g>
   <g>
    <path id="32" class="fil5 str4" d="M4319 1565c-1,-2 -1,-5 -2,-8 -1,-3 -1,-6 -1,-9 0,-4 1,-7 2,-10 1,-3 2,-6 4,-8 1,-3 3,-5 6,-8 2,-2 5,-5 8,-7 2,-2 5,-5 7,-7 2,-3 5,-5 6,-8 2,-3 4,-6 5,-9 1,-3 1,-7 1,-11 0,-4 0,-8 -2,-11 -1,-3 -3,-6 -6,-9 -2,-2 -5,-4 -9,-5 -3,-1 -7,-2 -11,-2 -8,0 -14,2 -20,4 -6,3 -12,6 -18,10l0 -12c6,-4 12,-7 18,-9 6,-2 12,-3 20,-3 5,0 11,1 15,2 5,2 10,4 13,7 4,4 6,7 8,12 3,4 4,9 4,15 0,4 -1,8 -2,12 -2,4 -3,7 -5,10 -2,3 -4,6 -7,9 -2,2 -5,5 -8,8 -4,3 -7,7 -9,9 -3,3 -5,5 -6,7 -2,3 -3,5 -4,7 0,2 0,4 0,7 0,3 0,7 1,9 0,3 1,6 1,8l-9 0zm4 47c-2,0 -5,0 -6,-2 -2,-2 -3,-4 -3,-7 0,-3 1,-5 3,-7 1,-1 4,-2 6,-2 3,0 5,1 7,2 2,2 3,4 3,7 0,3 -1,5 -3,7 -2,2 -4,2 -7,2z"/>
   </g>
   <path id="33" class="fil6" d="M2423 1226c1,2 2,4 2,7 1,3 1,6 1,9 0,4 0,7 -1,10 -1,3 -2,6 -4,9 -2,2 -4,5 -6,7 -3,3 -5,5 -8,8 -3,2 -5,4 -8,7 -2,2 -4,5 -6,7 -2,3 -3,6 -4,9 -1,4 -2,7 -2,11 0,4 1,8 2,11 2,4 4,7 6,9 3,2 6,4 9,5 4,1 8,2 12,2 7,0 14,-1 20,-4 6,-2 12,-6 17,-10l0 12c-5,4 -11,7 -17,9 -6,2 -13,3 -20,3 -6,0 -11,0 -16,-2 -5,-2 -9,-4 -13,-7 -3,-3 -6,-7 -8,-11 -2,-5 -3,-10 -3,-16 0,-4 1,-8 2,-12 1,-3 3,-7 5,-10 2,-3 4,-6 6,-8 3,-3 5,-6 8,-8 4,-4 7,-7 10,-10 2,-3 5,-5 6,-7 1,-2 2,-4 3,-6 1,-2 1,-5 1,-8 0,-3 0,-6 -1,-9 -1,-3 -1,-5 -2,-7l9 0zm-3 -48c2,0 4,1 6,3 2,1 3,4 3,6 0,3 -1,5 -3,7 -2,2 -4,2 -6,2 -3,0 -5,0 -7,-2 -2,-2 -3,-4 -3,-7 0,-2 1,-5 3,-6 2,-2 4,-3 7,-3z"/>
   <polygon id="34" class="fil6" points="2482,1298 2482,1133 2559,1133 2559,1143 2493,1143 2493,1209 2554,1209 2554,1220 2493,1220 2493,1287 2563,1287 2563,1298 "/>
   <path id="35" class="fil6" d="M2591 1292l0 -12c4,3 9,6 14,8 6,2 11,3 15,3 19,0 28,-8 28,-23 0,-5 -2,-9 -6,-13 -4,-4 -11,-8 -20,-12 -11,-4 -19,-9 -24,-15 -4,-5 -7,-11 -7,-19 0,-9 4,-17 11,-23 8,-6 17,-9 27,-9 11,0 19,2 26,6l0 12c-8,-5 -17,-8 -27,-8 -7,0 -14,2 -18,6 -5,4 -8,9 -8,15 0,6 2,11 5,14 3,4 10,8 20,12 12,6 20,11 25,15 5,5 7,11 7,19 0,9 -4,17 -11,23 -7,6 -16,9 -29,9 -11,0 -20,-2 -28,-8z"/>
   <path id="36" class="fil6" d="M2900 1298l0 -71c0,-15 -2,-25 -7,-31 -4,-6 -12,-9 -22,-9 -9,0 -17,4 -24,12 -6,8 -10,18 -10,30l0 69 -10 0 0 -72c0,-26 -10,-39 -30,-39 -10,0 -18,4 -24,12 -6,8 -10,18 -10,31l0 68 -10 0 0 -118 10 0 0 20 1 0c8,-15 20,-23 36,-23 8,0 16,3 22,8 6,4 10,11 12,19 4,-8 9,-15 16,-20 7,-4 14,-7 22,-7 26,0 39,16 39,48l0 73 -11 0z"/>
   <path id="37" class="fil6" d="M2993 1300c-17,0 -30,-5 -40,-17 -10,-11 -15,-26 -15,-44 0,-19 5,-34 15,-45 11,-11 24,-17 42,-17 16,0 30,6 39,17 10,11 15,26 15,45 0,18 -5,33 -15,44 -10,12 -23,17 -41,17zm1 -113c-14,0 -25,4 -33,14 -8,9 -12,22 -12,39 0,15 4,27 12,37 8,9 19,14 33,14 14,0 25,-5 32,-14 8,-9 12,-22 12,-38 0,-17 -4,-30 -12,-39 -7,-9 -18,-13 -32,-13z"/>
   <path id="38" class="fil6" d="M3161 1298l0 -22 0 0c-4,8 -9,13 -17,18 -7,4 -16,6 -25,6 -15,0 -27,-5 -36,-15 -9,-11 -13,-26 -13,-44 0,-19 5,-34 15,-46 9,-12 22,-18 38,-18 18,0 31,7 38,22l0 0 0 -75 11 0 0 174 -11 0zm0 -72c0,-11 -3,-20 -10,-28 -7,-7 -16,-11 -28,-11 -12,0 -22,4 -30,14 -8,9 -12,22 -12,39 0,16 3,29 10,37 8,9 17,14 28,14 14,0 24,-4 31,-13 8,-8 11,-18 11,-30l0 -22z"/>
   <path id="39" class="fil6" d="M3287 1298l0 -22 0 0c-8,16 -21,24 -38,24 -28,0 -42,-17 -42,-52l0 -68 11 0 0 65c0,16 3,28 8,35 5,7 13,11 25,11 11,0 19,-4 26,-12 7,-8 10,-19 10,-32l0 -67 11 0 0 118 -11 0z"/>
   <polygon id="40" class="fil6" points="3336,1298 3336,1124 3346,1124 3346,1298 "/>
   <path id="41" class="fil6" d="M3454 1298l0 -24 0 0c-4,8 -10,14 -17,19 -7,5 -15,7 -24,7 -11,0 -20,-3 -26,-9 -7,-6 -10,-14 -10,-24 0,-20 14,-33 41,-37l36 -5c0,-26 -9,-38 -28,-38 -13,0 -26,5 -38,15l0 -12c4,-4 10,-7 18,-9 7,-3 14,-4 21,-4 12,0 21,4 28,11 6,8 10,19 10,33l0 77 -11 0zm-32 -59c-13,2 -21,5 -26,9 -5,4 -8,10 -8,19 0,7 3,12 7,17 5,4 11,7 20,7 11,0 20,-4 28,-13 7,-8 11,-19 11,-32l0 -12 -32 5z"/>
   <path id="42" class="fil6" d="M3555 1191c-3,-2 -7,-4 -12,-4 -9,0 -17,5 -23,15 -7,9 -10,23 -10,40l0 56 -10 0 0 -118 10 0 0 26 1 0c2,-9 7,-16 13,-21 5,-5 12,-7 20,-7 4,0 8,0 11,2l0 11z"/>
   <path id="43" class="fil6" d="M3671 1322c-4,10 -9,18 -14,23 -6,5 -12,8 -21,8 -3,0 -6,-1 -9,-2l0 -10c3,1 6,1 10,1 9,0 17,-6 22,-19l11 -26 -44 -117 11 0 36 96c1,2 1,3 1,4 1,2 1,3 1,4l1 0 3 -8 38 -96 11 0 -57 142z"/>
   <path id="44" class="fil6" d="M3893 1298l0 -69c0,-28 -10,-42 -31,-42 -11,0 -20,4 -28,12 -7,9 -10,19 -10,31l0 68 -11 0 0 -118 11 0 0 21 0 0c9,-16 22,-24 40,-24 13,0 23,4 29,13 7,8 11,20 11,36l0 72 -11 0z"/>
   <path id="45" class="fil6" d="M3986 1300c-17,0 -31,-5 -41,-17 -10,-11 -15,-26 -15,-44 0,-19 6,-34 16,-45 11,-11 24,-17 41,-17 17,0 30,6 40,17 10,11 15,26 15,45 0,18 -5,33 -15,44 -10,12 -24,17 -41,17zm1 -113c-14,0 -25,4 -33,14 -8,9 -13,22 -13,39 0,15 4,27 12,37 9,9 20,14 33,14 15,0 25,-5 33,-14 8,-9 12,-22 12,-38 0,-17 -4,-30 -12,-39 -7,-9 -18,-13 -32,-13z"/>
   <path id="46" class="fil6" d="M2137 1610l0 -21 -1 0c-3,7 -9,13 -17,18 -7,4 -16,6 -25,6 -14,0 -26,-5 -35,-16 -9,-10 -14,-25 -14,-43 0,-19 5,-35 15,-46 10,-12 23,-18 39,-18 17,0 30,7 37,22l1 0 0 -76 10 0 0 174 -10 0zm0 -71c0,-11 -4,-20 -11,-28 -6,-8 -16,-11 -27,-11 -13,0 -23,4 -31,14 -8,9 -12,22 -12,39 0,16 4,28 11,37 7,9 16,14 28,14 13,0 24,-5 31,-13 7,-8 11,-18 11,-30l0 -22z"/>
   <path id="47" class="fil6" d="M2188 1552c0,16 3,29 11,38 7,9 18,14 31,14 13,0 26,-5 38,-15l0 11c-12,9 -26,13 -41,13 -15,0 -27,-5 -36,-16 -10,-11 -14,-26 -14,-46 0,-17 5,-32 14,-43 10,-12 23,-18 38,-18 15,0 26,5 34,15 8,11 12,25 12,42l0 5 -87 0zm76 -10c-1,-13 -4,-24 -10,-31 -6,-8 -15,-11 -25,-11 -11,0 -20,3 -27,11 -8,7 -12,18 -14,31l76 0z"/>
   <path id="48" class="fil6" d="M2315 1589l-1 0 0 75 -10 0 0 -171 10 0 0 24 1 0c4,-9 10,-15 18,-20 8,-5 16,-7 26,-7 15,0 26,5 35,15 8,11 12,25 12,42 0,20 -4,36 -14,48 -10,12 -22,18 -38,18 -18,0 -31,-8 -39,-24zm-1 -43l0 15c0,11 4,21 12,30 7,8 17,13 29,13 12,0 22,-6 29,-16 8,-10 11,-24 11,-40 0,-15 -3,-27 -10,-35 -7,-9 -16,-13 -28,-13 -13,0 -24,4 -31,13 -8,10 -12,20 -12,33z"/>
   <path id="49" class="fil6" d="M2438 1552c0,16 4,29 11,38 8,9 18,14 31,14 13,0 26,-5 39,-15l0 11c-13,9 -26,13 -41,13 -15,0 -28,-5 -37,-16 -9,-11 -14,-26 -14,-46 0,-17 5,-32 15,-43 9,-12 22,-18 38,-18 14,0 26,5 33,15 8,11 12,25 12,42l0 5 -87 0zm76 -10c0,-13 -4,-24 -10,-31 -6,-8 -14,-11 -25,-11 -11,0 -20,3 -27,11 -7,7 -12,18 -13,31l75 0z"/>
   <path id="50" class="fil6" d="M2634 1610l0 -68c0,-28 -10,-42 -30,-42 -12,0 -21,4 -28,12 -8,8 -11,19 -11,31l0 67 -11 0 0 -117 11 0 0 21 0 0c9,-16 22,-24 40,-24 13,0 23,4 30,13 6,8 10,20 10,36l0 71 -11 0z"/>
   <path id="51" class="fil6" d="M2764 1610l0 -21 -1 0c-4,7 -9,13 -17,18 -7,4 -16,6 -25,6 -15,0 -27,-5 -36,-16 -9,-10 -13,-25 -13,-43 0,-19 5,-35 15,-46 10,-12 23,-18 38,-18 18,0 31,7 38,22l1 0 0 -76 10 0 0 174 -10 0zm0 -71c0,-11 -4,-20 -11,-28 -7,-8 -16,-11 -28,-11 -12,0 -22,4 -30,14 -8,9 -12,22 -12,39 0,16 3,28 11,37 7,9 16,14 27,14 14,0 24,-5 32,-13 7,-8 11,-18 11,-30l0 -22z"/>
   <path id="52" class="fil6" d="M2814 1552c0,16 4,29 12,38 7,9 17,14 30,14 13,0 26,-5 39,-15l0 11c-12,9 -26,13 -41,13 -15,0 -27,-5 -37,-16 -9,-11 -14,-26 -14,-46 0,-17 5,-32 15,-43 10,-12 22,-18 38,-18 15,0 26,5 34,15 7,11 11,25 11,42l0 5 -87 0zm76 -10c0,-13 -3,-24 -9,-31 -6,-8 -15,-11 -25,-11 -11,0 -21,3 -28,11 -7,7 -11,18 -13,31l75 0z"/>
   <path id="53" class="fil6" d="M3078 1610l0 -21 0 0c-4,7 -10,13 -17,18 -8,4 -16,6 -25,6 -15,0 -27,-5 -36,-16 -9,-10 -14,-25 -14,-43 0,-19 5,-35 15,-46 10,-12 23,-18 39,-18 18,0 30,7 38,22l0 0 0 -76 11 0 0 174 -11 0zm0 -71c0,-11 -3,-20 -10,-28 -7,-8 -16,-11 -28,-11 -12,0 -22,4 -30,14 -8,9 -12,22 -12,39 0,16 3,28 10,37 8,9 17,14 28,14 14,0 24,-5 31,-13 8,-8 11,-18 11,-30l0 -22z"/>
   <path id="54" class="fil6" d="M3129 1552c0,16 4,29 11,38 8,9 18,14 31,14 13,0 26,-5 39,-15l0 11c-13,9 -26,13 -41,13 -15,0 -28,-5 -37,-16 -9,-11 -14,-26 -14,-46 0,-17 5,-32 15,-43 10,-12 22,-18 38,-18 14,0 26,5 33,15 8,11 12,25 12,42l0 5 -87 0zm76 -10c0,-13 -4,-24 -10,-31 -6,-8 -14,-11 -25,-11 -11,0 -20,3 -27,11 -7,7 -12,18 -13,31l75 0z"/>
   <path id="55" class="fil6" d="M3357 1613c-17,0 -31,-5 -41,-17 -10,-11 -15,-26 -15,-44 0,-19 6,-34 16,-45 10,-12 24,-17 41,-17 17,0 30,5 40,16 10,11 15,26 15,46 0,18 -5,33 -15,44 -10,12 -24,17 -41,17zm1 -113c-14,0 -25,4 -33,14 -9,9 -13,22 -13,38 0,16 4,28 12,38 8,9 19,14 33,14 14,0 25,-5 33,-14 8,-9 11,-22 11,-38 0,-17 -3,-30 -11,-39 -8,-9 -18,-13 -32,-13z"/>
   <path id="56" class="fil6" d="M3488 1609c-5,2 -10,4 -15,4 -18,0 -26,-11 -26,-32l0 -79 -21 0 0 -9 21 0 0 -31c1,0 3,-1 5,-2 2,0 4,-1 5,-1l0 34 31 0 0 9 -31 0 0 78c0,8 2,14 4,18 3,3 7,5 13,5 5,0 9,-1 14,-4l0 10z"/>
   <path id="57" class="fil6" d="M3567 1504c-4,-3 -8,-4 -12,-4 -10,0 -17,5 -24,14 -6,10 -9,24 -9,41l0 55 -10 0 0 -117 10 0 0 26 0 0c3,-9 7,-16 13,-21 6,-5 13,-8 20,-8 5,0 9,1 12,3l0 11z"/>
   <path id="58" class="fil6" d="M3632 1613c-18,0 -31,-5 -41,-17 -10,-11 -15,-26 -15,-44 0,-19 5,-34 16,-45 10,-12 24,-17 41,-17 17,0 30,5 40,16 9,11 14,26 14,46 0,18 -5,33 -15,44 -10,12 -23,17 -40,17zm0 -113c-13,0 -24,4 -33,14 -8,9 -12,22 -12,38 0,16 4,28 12,38 8,9 19,14 33,14 14,0 25,-5 33,-14 7,-9 11,-22 11,-38 0,-17 -4,-30 -11,-39 -8,-9 -19,-13 -33,-13z"/>
   <path id="59" class="fil6" d="M3775 1605l0 -13c4,4 8,7 14,9 6,2 11,3 15,3 18,0 28,-8 28,-23 0,-5 -2,-10 -6,-13 -5,-4 -11,-8 -20,-12 -12,-5 -19,-10 -24,-15 -5,-5 -7,-12 -7,-19 0,-10 4,-17 11,-23 7,-6 16,-9 27,-9 10,0 19,2 26,6l0 12c-9,-6 -18,-8 -27,-8 -8,0 -14,2 -19,6 -4,4 -7,9 -7,15 0,6 2,10 5,14 3,3 9,7 19,12 13,5 21,10 26,15 4,5 7,11 7,19 0,9 -4,17 -11,23 -7,6 -17,9 -29,9 -11,0 -21,-2 -28,-8z"/>
   <path id="60" class="fil6" d="M3948 1605c-8,6 -19,8 -31,8 -16,0 -29,-5 -39,-16 -10,-11 -14,-26 -14,-43 0,-19 5,-34 16,-46 11,-12 25,-18 43,-18 9,0 17,2 26,5l0 12c-9,-5 -18,-7 -28,-7 -14,0 -25,5 -33,14 -9,10 -13,23 -13,39 0,15 4,27 11,37 8,9 19,14 31,14 12,0 23,-4 31,-10l0 11z"/>
   <path id="61" class="fil6" d="M4032 1504c-4,-3 -8,-4 -12,-4 -10,0 -17,5 -24,14 -6,10 -9,24 -9,41l0 55 -11 0 0 -117 11 0 0 26 0 0c3,-9 7,-16 13,-21 6,-5 13,-8 20,-8 5,0 8,1 12,3l0 11z"/>
   <path id="62" class="fil6" d="M4059 1463c-2,0 -4,-1 -6,-2 -2,-2 -2,-4 -2,-7 0,-2 0,-4 2,-6 2,-1 4,-2 6,-2 3,0 5,0 6,2 2,2 3,4 3,6 0,3 -1,5 -2,7 -2,1 -4,2 -7,2zm-5 147l0 -117 11 0 0 117 -11 0z"/>
   <path id="63" class="fil6" d="M4113 1589l0 0 0 75 -11 0 0 -171 11 0 0 24 0 0c5,-9 11,-15 18,-20 8,-5 17,-7 26,-7 15,0 27,5 35,15 9,11 13,25 13,42 0,20 -5,36 -15,48 -9,12 -22,18 -38,18 -17,0 -30,-8 -39,-24zm0 -43l0 15c0,11 4,21 11,30 7,8 17,13 29,13 12,0 22,-6 29,-16 8,-10 12,-24 12,-40 0,-15 -4,-27 -11,-35 -6,-9 -16,-13 -27,-13 -14,0 -24,4 -32,13 -7,10 -11,20 -11,33z"/>
   <path id="64" class="fil6" d="M4281 1609c-6,2 -11,4 -16,4 -17,0 -26,-11 -26,-32l0 -79 -21 0 0 -9 21 0 0 -31c2,0 3,-1 5,-2 2,0 4,-1 5,-1l0 34 32 0 0 9 -32 0 0 78c0,8 2,14 4,18 3,3 7,5 13,5 5,0 9,-1 15,-4l0 10z"/>
   <path id="65" class="fil6" d="M4319 1565c-1,-2 -1,-5 -2,-8 -1,-3 -1,-6 -1,-9 0,-4 1,-7 2,-10 1,-3 2,-6 4,-8 1,-3 3,-5 6,-8 2,-2 5,-5 8,-7 2,-2 5,-5 7,-7 2,-3 5,-5 6,-8 2,-3 4,-6 5,-9 1,-3 1,-7 1,-11 0,-4 0,-8 -2,-11 -1,-3 -3,-6 -6,-9 -2,-2 -5,-4 -9,-5 -3,-1 -7,-2 -11,-2 -8,0 -14,2 -20,4 -6,3 -12,6 -18,10l0 -12c6,-4 12,-7 18,-9 6,-2 12,-3 20,-3 5,0 11,1 15,2 5,2 10,4 13,7 4,4 6,7 8,12 3,4 4,9 4,15 0,4 -1,8 -2,12 -2,4 -3,7 -5,10 -2,3 -4,6 -7,9 -2,2 -5,5 -8,8 -4,3 -7,7 -9,9 -3,3 -5,5 -6,7 -2,3 -3,5 -4,7 0,2 0,4 0,7 0,3 0,7 1,9 0,3 1,6 1,8l-9 0zm4 47c-2,0 -5,0 -6,-2 -2,-2 -3,-4 -3,-7 0,-3 1,-5 3,-7 1,-1 4,-2 6,-2 3,0 5,1 7,2 2,2 3,4 3,7 0,3 -1,5 -3,7 -2,2 -4,2 -7,2z"/>
   <g>
    <path class="fil5 str5" d="M2062 2975c0,2 1,4 2,8 0,3 1,6 1,9 0,3 -1,7 -2,10 -1,3 -2,5 -4,8 -2,3 -4,5 -6,8 -3,2 -5,5 -8,7 -3,2 -5,5 -7,7 -3,2 -5,5 -7,8 -1,3 -3,6 -4,9 -1,3 -2,7 -2,11 0,4 1,8 2,11 2,3 4,6 6,8 3,3 6,4 9,6 4,1 8,2 12,2 7,0 14,-2 20,-4 6,-3 12,-6 17,-11l0 13c-5,4 -11,7 -17,9 -6,2 -13,3 -20,3 -6,0 -11,-1 -16,-3 -5,-1 -9,-4 -12,-7 -4,-3 -7,-7 -9,-11 -2,-4 -3,-10 -3,-15 0,-5 1,-9 2,-12 1,-4 3,-7 5,-10 2,-3 4,-6 7,-9 2,-3 5,-5 7,-8 4,-4 8,-7 10,-9 3,-3 5,-5 6,-8 2,-2 3,-4 3,-6 1,-2 1,-4 1,-7 0,-4 0,-7 -1,-10 0,-3 -1,-5 -2,-7l10 0zm-4 -48c2,0 5,1 6,3 2,2 3,4 3,7 0,2 -1,5 -3,6 -1,2 -4,3 -6,3 -3,0 -5,-1 -7,-3 -2,-1 -3,-4 -3,-6 0,-3 1,-5 3,-7 2,-2 4,-3 7,-3z"/>
   </g>
   <g>
    <path id="1" class="fil5 str5" d="M2120 3047l0 -165 41 0c28,0 48,7 63,21 14,13 21,33 21,59 0,26 -8,46 -23,62 -15,15 -36,23 -63,23l-39 0zm11 -154l0 144 26 0c25,0 43,-7 57,-19 13,-13 19,-31 19,-55 0,-47 -24,-70 -73,-70l-29 0z"/>
   </g>
   <g>
    <path id="2" class="fil5 str5" d="M2279 2989c0,16 4,28 11,38 7,9 18,13 31,13 13,0 26,-5 38,-14l0 11c-12,9 -26,13 -41,13 -15,0 -27,-6 -36,-16 -10,-11 -14,-27 -14,-46 0,-18 5,-32 14,-44 10,-12 23,-17 38,-17 15,0 26,5 34,15 8,10 12,24 12,42l0 5 -87 0zm76 -10c-1,-13 -4,-24 -10,-31 -6,-8 -14,-12 -25,-12 -11,0 -20,4 -27,11 -8,8 -12,18 -14,32l76 0z"/>
   </g>
   <g>
    <path id="3" class="fil5 str5" d="M2406 3026l0 0 0 75 -11 0 0 -172 11 0 0 25 0 0c4,-9 10,-16 18,-20 8,-5 17,-7 26,-7 15,0 26,5 35,15 8,10 12,24 12,42 0,20 -4,36 -14,48 -10,12 -22,18 -38,18 -18,0 -31,-8 -39,-24zm0 -44l0 15c0,12 3,22 11,31 7,8 17,12 29,12 12,0 22,-5 29,-15 8,-11 11,-24 11,-41 0,-14 -3,-26 -10,-35 -7,-8 -16,-13 -27,-13 -14,0 -25,5 -32,14 -8,9 -11,20 -11,32z"/>
   </g>
   <g>
    <path id="4" class="fil5 str5" d="M2529 2989c0,16 4,28 11,38 8,9 18,13 31,13 13,0 26,-5 39,-14l0 11c-13,9 -26,13 -41,13 -15,0 -28,-6 -37,-16 -9,-11 -14,-27 -14,-46 0,-18 5,-32 15,-44 10,-12 22,-17 38,-17 14,0 26,5 34,15 7,10 11,24 11,42l0 5 -87 0zm76 -10c0,-13 -4,-24 -10,-31 -6,-8 -14,-12 -25,-12 -11,0 -20,4 -27,11 -7,8 -12,18 -13,32l75 0z"/>
   </g>
   <g>
    <path id="5" class="fil5 str5" d="M2725 3047l0 -68c0,-29 -10,-43 -30,-43 -12,0 -21,4 -28,13 -7,8 -11,18 -11,31l0 67 -11 0 0 -118 11 0 0 22 0 0c9,-16 22,-24 41,-24 12,0 22,4 29,12 7,9 10,21 10,37l0 71 -11 0z"/>
   </g>
   <g>
    <path id="6" class="fil5 str5" d="M2855 3047l0 -21 -1 0c-4,7 -9,13 -17,17 -7,5 -16,7 -25,7 -15,0 -26,-5 -36,-16 -9,-11 -13,-25 -13,-44 0,-19 5,-34 15,-46 10,-12 23,-17 39,-17 17,0 30,7 37,21l1 0 0 -75 10 0 0 174 -10 0zm0 -72c0,-10 -4,-20 -11,-27 -7,-8 -16,-12 -28,-12 -12,0 -22,5 -30,14 -8,10 -12,23 -12,39 0,17 3,29 11,38 7,9 16,13 28,13 13,0 23,-4 31,-12 7,-9 11,-19 11,-31l0 -22z"/>
   </g>
   <g>
    <path id="7" class="fil5 str5" d="M2905 2989c0,16 4,28 12,38 7,9 17,13 30,13 14,0 26,-5 39,-14l0 11c-12,9 -26,13 -41,13 -15,0 -27,-6 -37,-16 -9,-11 -14,-27 -14,-46 0,-18 5,-32 15,-44 10,-12 23,-17 38,-17 15,0 26,5 34,15 8,10 11,24 11,42l0 5 -87 0zm76 -10c0,-13 -3,-24 -9,-31 -6,-8 -15,-12 -25,-12 -11,0 -20,4 -28,11 -7,8 -11,18 -13,32l75 0z"/>
   </g>
   <g>
    <path id="8" class="fil5 str5" d="M3170 3047l0 -21 -1 0c-4,7 -9,13 -17,17 -7,5 -16,7 -25,7 -15,0 -27,-5 -36,-16 -9,-11 -13,-25 -13,-44 0,-19 5,-34 15,-46 10,-12 23,-17 38,-17 18,0 31,7 38,21l1 0 0 -75 10 0 0 174 -10 0zm0 -72c0,-10 -4,-20 -11,-27 -7,-8 -16,-12 -28,-12 -12,0 -22,5 -30,14 -8,10 -12,23 -12,39 0,17 3,29 10,38 8,9 17,13 28,13 14,0 24,-4 32,-12 7,-9 11,-19 11,-31l0 -22z"/>
   </g>
   <g>
    <path id="9" class="fil5 str5" d="M3220 2989c0,16 4,28 12,38 7,9 17,13 30,13 13,0 26,-5 39,-14l0 11c-12,9 -26,13 -41,13 -15,0 -27,-6 -37,-16 -9,-11 -14,-27 -14,-46 0,-18 5,-32 15,-44 10,-12 22,-17 38,-17 15,0 26,5 34,15 7,10 11,24 11,42l0 5 -87 0zm76 -10c0,-13 -3,-24 -9,-31 -7,-8 -15,-12 -25,-12 -11,0 -21,4 -28,11 -7,8 -12,18 -13,32l75 0z"/>
   </g>
   <g>
    <path id="10" class="fil5 str5" d="M3448 3050c-17,0 -31,-6 -41,-17 -10,-11 -15,-26 -15,-44 0,-20 6,-35 16,-46 11,-11 24,-16 41,-16 17,0 30,5 40,16 10,11 15,26 15,45 0,19 -5,34 -15,45 -10,11 -24,17 -41,17zm1 -114c-14,0 -25,5 -33,14 -8,10 -13,23 -13,39 0,16 4,28 13,37 8,10 19,14 32,14 15,0 25,-4 33,-14 8,-9 12,-21 12,-38 0,-17 -4,-29 -12,-38 -7,-9 -18,-14 -32,-14z"/>
   </g>
   <g>
    <path id="11" class="fil5 str5" d="M3579 3045c-5,3 -10,4 -15,4 -18,0 -26,-10 -26,-31l0 -79 -21 0 0 -10 21 0 0 -30c1,-1 3,-1 5,-2 2,0 4,-1 5,-2l0 34 31 0 0 10 -31 0 0 78c0,8 2,14 4,17 3,4 7,6 13,6 5,0 9,-2 14,-5l0 10z"/>
   </g>
   <g>
    <path id="12" class="fil5 str5" d="M3658 2941c-3,-3 -8,-4 -12,-4 -10,0 -17,5 -24,14 -6,10 -9,23 -9,41l0 55 -10 0 0 -118 10 0 0 26 0 0c3,-9 7,-15 13,-20 6,-5 13,-8 20,-8 5,0 9,1 12,2l0 12z"/>
   </g>
   <g>
    <path id="13" class="fil5 str5" d="M3723 3050c-17,0 -31,-6 -41,-17 -10,-11 -15,-26 -15,-44 0,-20 5,-35 16,-46 10,-11 24,-16 41,-16 17,0 30,5 40,16 9,11 14,26 14,45 0,19 -5,34 -15,45 -9,11 -23,17 -40,17zm1 -114c-14,0 -25,5 -34,14 -8,10 -12,23 -12,39 0,16 4,28 12,37 8,10 19,14 33,14 14,0 25,-4 33,-14 7,-9 11,-21 11,-38 0,-17 -4,-29 -11,-38 -8,-9 -19,-14 -32,-14z"/>
   </g>
   <g>
    <path id="14" class="fil5 str5" d="M3866 3042l0 -13c4,4 9,6 14,8 6,2 11,3 15,3 18,0 28,-7 28,-22 0,-6 -2,-10 -6,-14 -4,-3 -11,-7 -20,-11 -11,-5 -19,-10 -24,-15 -4,-6 -7,-12 -7,-19 0,-10 4,-18 11,-24 8,-5 17,-8 27,-8 10,0 19,2 26,6l0 12c-9,-6 -18,-9 -27,-9 -8,0 -14,2 -19,6 -4,4 -7,10 -7,16 0,6 2,10 5,14 3,3 9,7 20,12 12,5 20,10 25,15 4,5 7,11 7,19 0,9 -4,17 -11,23 -7,6 -16,9 -29,9 -11,0 -21,-3 -28,-8z"/>
   </g>
   <g>
    <path id="15" class="fil5 str5" d="M4039 3042c-8,5 -19,8 -31,8 -16,0 -29,-6 -39,-17 -9,-11 -14,-25 -14,-43 0,-18 5,-34 16,-46 11,-11 25,-17 43,-17 9,0 17,1 26,5l0 12c-9,-5 -18,-8 -28,-8 -14,0 -25,5 -33,15 -9,10 -13,23 -13,39 0,15 4,27 12,36 7,10 18,14 31,14 11,0 22,-3 30,-9l0 11z"/>
   </g>
   <g>
    <path id="16" class="fil5 str5" d="M4123 2941c-3,-3 -8,-4 -12,-4 -10,0 -17,5 -24,14 -6,10 -9,23 -9,41l0 55 -10 0 0 -118 10 0 0 26 0 0c3,-9 7,-15 13,-20 6,-5 13,-8 20,-8 5,0 9,1 12,2l0 12z"/>
   </g>
   <g>
    <path id="17" class="fil5 str5" d="M4150 2900c-2,0 -4,-1 -6,-3 -1,-1 -2,-4 -2,-6 0,-3 1,-5 2,-6 2,-2 4,-3 6,-3 3,0 5,1 7,3 1,1 2,3 2,6 0,2 -1,4 -2,6 -2,2 -4,3 -7,3zm-5 147l0 -118 11 0 0 118 -11 0z"/>
   </g>
   <g>
    <path id="18" class="fil5 str5" d="M4204 3026l0 0 0 75 -11 0 0 -172 11 0 0 25 0 0c5,-9 11,-16 19,-20 7,-5 16,-7 25,-7 15,0 27,5 35,15 9,10 13,24 13,42 0,20 -5,36 -15,48 -9,12 -22,18 -38,18 -17,0 -30,-8 -39,-24zm0 -44l0 15c0,12 4,22 11,31 8,8 17,12 29,12 12,0 22,-5 30,-15 7,-11 11,-24 11,-41 0,-14 -4,-26 -10,-35 -7,-8 -17,-13 -28,-13 -14,0 -24,5 -32,14 -7,9 -11,20 -11,32z"/>
   </g>
   <g>
    <path id="19" class="fil5 str5" d="M4372 3045c-6,3 -11,4 -16,4 -17,0 -26,-10 -26,-31l0 -79 -21 0 0 -10 21 0 0 -30c2,-1 3,-1 5,-2 2,0 4,-1 6,-2l0 34 31 0 0 10 -31 0 0 78c0,8 1,14 3,17 3,4 7,6 13,6 5,0 10,-2 15,-5l0 10z"/>
   </g>
   <g>
    <path id="20" class="fil5 str5" d="M4410 3001c-1,-2 -1,-4 -2,-7 0,-3 -1,-6 -1,-9 0,-4 1,-7 2,-10 1,-3 2,-6 4,-9 2,-2 4,-5 6,-7 2,-3 5,-5 8,-8 2,-2 5,-4 7,-7 3,-2 5,-5 7,-7 1,-3 3,-6 4,-9 1,-4 2,-7 2,-11 0,-4 -1,-8 -2,-11 -2,-4 -4,-7 -6,-9 -3,-2 -6,-4 -10,-5 -3,-1 -7,-2 -11,-2 -8,0 -14,1 -20,4 -6,2 -12,6 -17,10l0 -12c5,-4 11,-7 17,-9 6,-2 12,-3 20,-3 5,0 11,0 16,2 4,2 9,4 12,7 4,3 7,7 9,11 2,5 3,10 3,16 0,4 -1,8 -2,12 -1,3 -3,7 -5,10 -2,3 -4,6 -7,8 -2,3 -5,6 -7,8 -4,4 -8,7 -10,10 -3,3 -5,5 -6,7 -2,2 -3,4 -3,6 -1,2 -1,5 -1,8 0,3 0,6 1,9 0,3 1,5 1,7l-9 0zm4 48c-2,0 -4,-1 -6,-3 -2,-1 -3,-4 -3,-6 0,-3 1,-5 3,-7 2,-2 4,-2 6,-2 3,0 5,0 7,2 2,2 3,4 3,7 0,2 -1,5 -3,6 -2,2 -4,3 -7,3z"/>
   </g>
   <path id="21" class="fil6" d="M2062 2975c0,2 1,4 2,8 0,3 1,6 1,9 0,3 -1,7 -2,10 -1,3 -2,5 -4,8 -2,3 -4,5 -6,8 -3,2 -5,5 -8,7 -3,2 -5,5 -7,7 -3,2 -5,5 -7,8 -1,3 -3,6 -4,9 -1,3 -2,7 -2,11 0,4 1,8 2,11 2,3 4,6 6,8 3,3 6,4 9,6 4,1 8,2 12,2 7,0 14,-2 20,-4 6,-3 12,-6 17,-11l0 13c-5,4 -11,7 -17,9 -6,2 -13,3 -20,3 -6,0 -11,-1 -16,-3 -5,-1 -9,-4 -12,-7 -4,-3 -7,-7 -9,-11 -2,-4 -3,-10 -3,-15 0,-5 1,-9 2,-12 1,-4 3,-7 5,-10 2,-3 4,-6 7,-9 2,-3 5,-5 7,-8 4,-4 8,-7 10,-9 3,-3 5,-5 6,-8 2,-2 3,-4 3,-6 1,-2 1,-4 1,-7 0,-4 0,-7 -1,-10 0,-3 -1,-5 -2,-7l10 0zm-4 -48c2,0 5,1 6,3 2,2 3,4 3,7 0,2 -1,5 -3,6 -1,2 -4,3 -6,3 -3,0 -5,-1 -7,-3 -2,-1 -3,-4 -3,-6 0,-3 1,-5 3,-7 2,-2 4,-3 7,-3z"/>
   <path id="22" class="fil6" d="M2120 3047l0 -165 41 0c28,0 48,7 63,21 14,13 21,33 21,59 0,26 -8,46 -23,62 -15,15 -36,23 -63,23l-39 0zm11 -154l0 144 26 0c25,0 43,-7 57,-19 13,-13 19,-31 19,-55 0,-47 -24,-70 -73,-70l-29 0z"/>
   <path id="23" class="fil6" d="M2279 2989c0,16 4,28 11,38 7,9 18,13 31,13 13,0 26,-5 38,-14l0 11c-12,9 -26,13 -41,13 -15,0 -27,-6 -36,-16 -10,-11 -14,-27 -14,-46 0,-18 5,-32 14,-44 10,-12 23,-17 38,-17 15,0 26,5 34,15 8,10 12,24 12,42l0 5 -87 0zm76 -10c-1,-13 -4,-24 -10,-31 -6,-8 -14,-12 -25,-12 -11,0 -20,4 -27,11 -8,8 -12,18 -14,32l76 0z"/>
   <path id="24" class="fil6" d="M2406 3026l0 0 0 75 -11 0 0 -172 11 0 0 25 0 0c4,-9 10,-16 18,-20 8,-5 17,-7 26,-7 15,0 26,5 35,15 8,10 12,24 12,42 0,20 -4,36 -14,48 -10,12 -22,18 -38,18 -18,0 -31,-8 -39,-24zm0 -44l0 15c0,12 3,22 11,31 7,8 17,12 29,12 12,0 22,-5 29,-15 8,-11 11,-24 11,-41 0,-14 -3,-26 -10,-35 -7,-8 -16,-13 -27,-13 -14,0 -25,5 -32,14 -8,9 -11,20 -11,32z"/>
   <path id="25" class="fil6" d="M2529 2989c0,16 4,28 11,38 8,9 18,13 31,13 13,0 26,-5 39,-14l0 11c-13,9 -26,13 -41,13 -15,0 -28,-6 -37,-16 -9,-11 -14,-27 -14,-46 0,-18 5,-32 15,-44 10,-12 22,-17 38,-17 14,0 26,5 34,15 7,10 11,24 11,42l0 5 -87 0zm76 -10c0,-13 -4,-24 -10,-31 -6,-8 -14,-12 -25,-12 -11,0 -20,4 -27,11 -7,8 -12,18 -13,32l75 0z"/>
   <path id="26" class="fil6" d="M2725 3047l0 -68c0,-29 -10,-43 -30,-43 -12,0 -21,4 -28,13 -7,8 -11,18 -11,31l0 67 -11 0 0 -118 11 0 0 22 0 0c9,-16 22,-24 41,-24 12,0 22,4 29,12 7,9 10,21 10,37l0 71 -11 0z"/>
   <path id="27" class="fil6" d="M2855 3047l0 -21 -1 0c-4,7 -9,13 -17,17 -7,5 -16,7 -25,7 -15,0 -26,-5 -36,-16 -9,-11 -13,-25 -13,-44 0,-19 5,-34 15,-46 10,-12 23,-17 39,-17 17,0 30,7 37,21l1 0 0 -75 10 0 0 174 -10 0zm0 -72c0,-10 -4,-20 -11,-27 -7,-8 -16,-12 -28,-12 -12,0 -22,5 -30,14 -8,10 -12,23 -12,39 0,17 3,29 11,38 7,9 16,13 28,13 13,0 23,-4 31,-12 7,-9 11,-19 11,-31l0 -22z"/>
   <path id="28" class="fil6" d="M2905 2989c0,16 4,28 12,38 7,9 17,13 30,13 14,0 26,-5 39,-14l0 11c-12,9 -26,13 -41,13 -15,0 -27,-6 -37,-16 -9,-11 -14,-27 -14,-46 0,-18 5,-32 15,-44 10,-12 23,-17 38,-17 15,0 26,5 34,15 8,10 11,24 11,42l0 5 -87 0zm76 -10c0,-13 -3,-24 -9,-31 -6,-8 -15,-12 -25,-12 -11,0 -20,4 -28,11 -7,8 -11,18 -13,32l75 0z"/>
   <path id="29" class="fil6" d="M3170 3047l0 -21 -1 0c-4,7 -9,13 -17,17 -7,5 -16,7 -25,7 -15,0 -27,-5 -36,-16 -9,-11 -13,-25 -13,-44 0,-19 5,-34 15,-46 10,-12 23,-17 38,-17 18,0 31,7 38,21l1 0 0 -75 10 0 0 174 -10 0zm0 -72c0,-10 -4,-20 -11,-27 -7,-8 -16,-12 -28,-12 -12,0 -22,5 -30,14 -8,10 -12,23 -12,39 0,17 3,29 10,38 8,9 17,13 28,13 14,0 24,-4 32,-12 7,-9 11,-19 11,-31l0 -22z"/>
   <path id="30" class="fil6" d="M3220 2989c0,16 4,28 12,38 7,9 17,13 30,13 13,0 26,-5 39,-14l0 11c-12,9 -26,13 -41,13 -15,0 -27,-6 -37,-16 -9,-11 -14,-27 -14,-46 0,-18 5,-32 15,-44 10,-12 22,-17 38,-17 15,0 26,5 34,15 7,10 11,24 11,42l0 5 -87 0zm76 -10c0,-13 -3,-24 -9,-31 -7,-8 -15,-12 -25,-12 -11,0 -21,4 -28,11 -7,8 -12,18 -13,32l75 0z"/>
   <path id="31" class="fil6" d="M3448 3050c-17,0 -31,-6 -41,-17 -10,-11 -15,-26 -15,-44 0,-20 6,-35 16,-46 11,-11 24,-16 41,-16 17,0 30,5 40,16 10,11 15,26 15,45 0,19 -5,34 -15,45 -10,11 -24,17 -41,17zm1 -114c-14,0 -25,5 -33,14 -8,10 -13,23 -13,39 0,16 4,28 13,37 8,10 19,14 32,14 15,0 25,-4 33,-14 8,-9 12,-21 12,-38 0,-17 -4,-29 -12,-38 -7,-9 -18,-14 -32,-14z"/>
   <path id="32" class="fil6" d="M3579 3045c-5,3 -10,4 -15,4 -18,0 -26,-10 -26,-31l0 -79 -21 0 0 -10 21 0 0 -30c1,-1 3,-1 5,-2 2,0 4,-1 5,-2l0 34 31 0 0 10 -31 0 0 78c0,8 2,14 4,17 3,4 7,6 13,6 5,0 9,-2 14,-5l0 10z"/>
   <path id="33" class="fil6" d="M3658 2941c-3,-3 -8,-4 -12,-4 -10,0 -17,5 -24,14 -6,10 -9,23 -9,41l0 55 -10 0 0 -118 10 0 0 26 0 0c3,-9 7,-15 13,-20 6,-5 13,-8 20,-8 5,0 9,1 12,2l0 12z"/>
   <path id="34" class="fil6" d="M3723 3050c-17,0 -31,-6 -41,-17 -10,-11 -15,-26 -15,-44 0,-20 5,-35 16,-46 10,-11 24,-16 41,-16 17,0 30,5 40,16 9,11 14,26 14,45 0,19 -5,34 -15,45 -9,11 -23,17 -40,17zm1 -114c-14,0 -25,5 -34,14 -8,10 -12,23 -12,39 0,16 4,28 12,37 8,10 19,14 33,14 14,0 25,-4 33,-14 7,-9 11,-21 11,-38 0,-17 -4,-29 -11,-38 -8,-9 -19,-14 -32,-14z"/>
   <path id="35" class="fil6" d="M3866 3042l0 -13c4,4 9,6 14,8 6,2 11,3 15,3 18,0 28,-7 28,-22 0,-6 -2,-10 -6,-14 -4,-3 -11,-7 -20,-11 -11,-5 -19,-10 -24,-15 -4,-6 -7,-12 -7,-19 0,-10 4,-18 11,-24 8,-5 17,-8 27,-8 10,0 19,2 26,6l0 12c-9,-6 -18,-9 -27,-9 -8,0 -14,2 -19,6 -4,4 -7,10 -7,16 0,6 2,10 5,14 3,3 9,7 20,12 12,5 20,10 25,15 4,5 7,11 7,19 0,9 -4,17 -11,23 -7,6 -16,9 -29,9 -11,0 -21,-3 -28,-8z"/>
   <path id="36" class="fil6" d="M4039 3042c-8,5 -19,8 -31,8 -16,0 -29,-6 -39,-17 -9,-11 -14,-25 -14,-43 0,-18 5,-34 16,-46 11,-11 25,-17 43,-17 9,0 17,1 26,5l0 12c-9,-5 -18,-8 -28,-8 -14,0 -25,5 -33,15 -9,10 -13,23 -13,39 0,15 4,27 12,36 7,10 18,14 31,14 11,0 22,-3 30,-9l0 11z"/>
   <path id="37" class="fil6" d="M4123 2941c-3,-3 -8,-4 -12,-4 -10,0 -17,5 -24,14 -6,10 -9,23 -9,41l0 55 -10 0 0 -118 10 0 0 26 0 0c3,-9 7,-15 13,-20 6,-5 13,-8 20,-8 5,0 9,1 12,2l0 12z"/>
   <path id="38" class="fil6" d="M4150 2900c-2,0 -4,-1 -6,-3 -1,-1 -2,-4 -2,-6 0,-3 1,-5 2,-6 2,-2 4,-3 6,-3 3,0 5,1 7,3 1,1 2,3 2,6 0,2 -1,4 -2,6 -2,2 -4,3 -7,3zm-5 147l0 -118 11 0 0 118 -11 0z"/>
   <path id="39" class="fil6" d="M4204 3026l0 0 0 75 -11 0 0 -172 11 0 0 25 0 0c5,-9 11,-16 19,-20 7,-5 16,-7 25,-7 15,0 27,5 35,15 9,10 13,24 13,42 0,20 -5,36 -15,48 -9,12 -22,18 -38,18 -17,0 -30,-8 -39,-24zm0 -44l0 15c0,12 4,22 11,31 8,8 17,12 29,12 12,0 22,-5 30,-15 7,-11 11,-24 11,-41 0,-14 -4,-26 -10,-35 -7,-8 -17,-13 -28,-13 -14,0 -24,5 -32,14 -7,9 -11,20 -11,32z"/>
   <path id="40" class="fil6" d="M4372 3045c-6,3 -11,4 -16,4 -17,0 -26,-10 -26,-31l0 -79 -21 0 0 -10 21 0 0 -30c2,-1 3,-1 5,-2 2,0 4,-1 6,-2l0 34 31 0 0 10 -31 0 0 78c0,8 1,14 3,17 3,4 7,6 13,6 5,0 10,-2 15,-5l0 10z"/>
   <path id="41" class="fil6" d="M4410 3001c-1,-2 -1,-4 -2,-7 0,-3 -1,-6 -1,-9 0,-4 1,-7 2,-10 1,-3 2,-6 4,-9 2,-2 4,-5 6,-7 2,-3 5,-5 8,-8 2,-2 5,-4 7,-7 3,-2 5,-5 7,-7 1,-3 3,-6 4,-9 1,-4 2,-7 2,-11 0,-4 -1,-8 -2,-11 -2,-4 -4,-7 -6,-9 -3,-2 -6,-4 -10,-5 -3,-1 -7,-2 -11,-2 -8,0 -14,1 -20,4 -6,2 -12,6 -17,10l0 -12c5,-4 11,-7 17,-9 6,-2 12,-3 20,-3 5,0 11,0 16,2 4,2 9,4 12,7 4,3 7,7 9,11 2,5 3,10 3,16 0,4 -1,8 -2,12 -1,3 -3,7 -5,10 -2,3 -4,6 -7,8 -2,3 -5,6 -7,8 -4,4 -8,7 -10,10 -3,3 -5,5 -6,7 -2,2 -3,4 -3,6 -1,2 -1,5 -1,8 0,3 0,6 1,9 0,3 1,5 1,7l-9 0zm4 48c-2,0 -4,-1 -6,-3 -2,-1 -3,-4 -3,-6 0,-3 1,-5 3,-7 2,-2 4,-2 6,-2 3,0 5,0 7,2 2,2 3,4 3,7 0,2 -1,5 -3,6 -2,2 -4,3 -7,3z"/>
   <g>
    <path class="fil5 str6" d="M1355 4157c1,2 1,5 2,8 0,3 1,6 1,9 0,4 -1,7 -2,10 -1,3 -2,6 -4,8 -2,3 -4,6 -6,8 -2,2 -5,5 -8,7 -2,3 -5,5 -7,7 -3,3 -5,5 -7,8 -1,3 -3,6 -4,9 -1,3 -2,7 -2,11 0,4 1,8 3,11 1,4 3,6 5,9 3,2 6,4 10,5 3,1 7,2 11,2 8,0 14,-1 20,-4 6,-2 12,-6 17,-10l0 12c-5,4 -11,7 -17,9 -6,2 -12,3 -20,3 -5,0 -11,-1 -16,-2 -4,-2 -9,-4 -12,-7 -4,-3 -7,-7 -9,-12 -2,-4 -3,-9 -3,-15 0,-4 1,-8 2,-12 1,-3 3,-7 5,-10 2,-3 4,-6 7,-9 2,-2 5,-5 7,-7 4,-4 8,-7 10,-10 3,-3 5,-5 6,-7 2,-2 3,-4 3,-6 1,-3 1,-5 1,-8 0,-3 0,-6 -1,-9 0,-3 -1,-6 -1,-8l9 0zm-4 -47c3,0 5,1 6,2 2,2 3,4 3,7 0,3 -1,5 -3,7 -1,1 -3,2 -6,2 -3,0 -5,-1 -7,-2 -2,-2 -3,-4 -3,-7 0,-3 1,-5 3,-7 2,-1 4,-2 7,-2z"/>
   </g>
   <g>
    <polygon id="1" class="fil5 str6" points="1413,4229 1413,4065 1490,4065 1490,4075 1424,4075 1424,4141 1485,4141 1485,4152 1424,4152 1424,4219 1494,4219 1494,4229 "/>
   </g>
   <g>
    <path id="2" class="fil5 str6" d="M1522 4224l0 -13c4,4 9,7 15,9 5,2 10,3 15,3 18,0 27,-8 27,-23 0,-5 -2,-10 -6,-13 -4,-4 -11,-8 -20,-12 -11,-5 -19,-10 -23,-15 -5,-5 -7,-11 -7,-19 0,-10 3,-17 11,-23 7,-6 16,-9 27,-9 10,0 19,2 26,6l0 12c-9,-6 -18,-8 -27,-8 -8,0 -14,2 -19,6 -5,4 -7,9 -7,15 0,6 1,10 4,14 3,3 10,7 20,12 12,5 21,11 25,15 5,5 7,11 7,19 0,9 -3,17 -10,23 -7,6 -17,9 -29,9 -12,0 -21,-2 -29,-8z"/>
   </g>
   <g>
    <path id="3" class="fil5 str6" d="M1695 4208l0 0 0 76 -11 0 0 -172 11 0 0 24 0 0c4,-9 10,-15 18,-20 8,-5 17,-7 26,-7 15,0 27,5 35,15 8,11 13,25 13,42 0,20 -5,36 -15,48 -9,12 -22,18 -38,18 -17,0 -30,-8 -39,-24zm0 -43l0 15c0,11 3,21 11,30 7,8 17,13 29,13 12,0 22,-6 29,-16 8,-10 12,-24 12,-40 0,-15 -4,-27 -11,-35 -7,-9 -16,-13 -27,-13 -14,0 -25,4 -32,13 -7,10 -11,20 -11,33z"/>
   </g>
   <g>
    <path id="4" class="fil5 str6" d="M1818 4171c0,16 4,29 12,38 7,9 17,14 30,14 13,0 26,-5 39,-15l0 11c-12,9 -26,13 -41,13 -15,0 -27,-5 -37,-16 -9,-11 -14,-26 -14,-46 0,-17 5,-32 15,-43 10,-12 22,-18 38,-18 15,0 26,5 34,15 8,11 11,25 11,42l0 5 -87 0zm76 -10c0,-13 -3,-24 -9,-31 -6,-8 -15,-11 -25,-11 -11,0 -21,3 -28,11 -7,7 -11,18 -13,31l75 0z"/>
   </g>
   <g>
    <path id="5" class="fil5 str6" d="M2018 4284l0 -76 0 0c-9,16 -23,24 -43,24 -15,0 -27,-5 -35,-16 -9,-11 -14,-25 -14,-44 0,-19 5,-34 15,-46 11,-11 23,-17 39,-17 18,0 30,7 38,22l0 0 0 -19 11 0 0 172 -11 0zm0 -125c0,-12 -3,-21 -10,-29 -7,-8 -16,-11 -29,-11 -12,0 -22,4 -30,14 -8,9 -12,22 -12,39 0,16 4,28 11,37 7,9 16,14 28,14 13,0 24,-5 31,-13 7,-8 11,-19 11,-31l0 -20z"/>
   </g>
   <g>
    <path id="6" class="fil5 str6" d="M2144 4229l0 -21 -1 0c-8,16 -20,24 -37,24 -28,0 -42,-17 -42,-52l0 -68 11 0 0 65c0,16 2,28 7,35 6,7 14,11 25,11 11,0 20,-4 27,-12 7,-9 10,-19 10,-33l0 -66 10 0 0 117 -10 0z"/>
   </g>
   <g>
    <path id="7" class="fil5 str6" d="M2195 4171c0,16 3,29 11,38 7,9 18,14 31,14 13,0 26,-5 38,-15l0 11c-12,9 -26,13 -41,13 -15,0 -27,-5 -36,-16 -10,-11 -14,-26 -14,-46 0,-17 5,-32 14,-43 10,-12 23,-18 38,-18 15,0 26,5 34,15 8,11 12,25 12,42l0 5 -87 0zm76 -10c-1,-13 -4,-24 -10,-31 -6,-8 -14,-11 -25,-11 -11,0 -20,3 -27,11 -8,7 -12,18 -14,31l76 0z"/>
   </g>
   <g>
    <path id="8" class="fil5 str6" d="M2391 4229l0 -68c0,-28 -10,-42 -31,-42 -11,0 -20,4 -28,12 -7,8 -11,19 -11,31l0 67 -10 0 0 -117 10 0 0 21 1 0c8,-16 22,-24 40,-24 13,0 23,4 29,13 7,8 10,20 10,36l0 71 -10 0zm4 -163c0,8 -2,14 -6,19 -3,4 -8,7 -15,7 -5,0 -11,-3 -17,-9 -5,-4 -10,-6 -14,-6 -8,0 -11,5 -11,16l-9 0c0,-8 2,-14 6,-18 3,-5 8,-7 14,-7 6,0 12,2 19,8 5,4 9,7 13,7 3,0 6,-2 8,-5 2,-2 3,-7 3,-12l9 0z"/>
   </g>
   <g>
    <path id="9" class="fil5 str6" d="M2484 4232c-17,0 -31,-5 -41,-17 -10,-11 -15,-26 -15,-44 0,-19 5,-34 16,-45 10,-11 24,-17 41,-17 17,0 30,6 40,16 10,11 14,27 14,46 0,18 -4,33 -14,44 -10,12 -24,17 -41,17zm1 -113c-14,0 -25,4 -33,14 -9,9 -13,22 -13,39 0,15 4,27 12,37 8,9 19,14 33,14 14,0 25,-5 33,-14 8,-9 11,-22 11,-38 0,-17 -3,-30 -11,-39 -8,-9 -18,-13 -32,-13z"/>
   </g>
   <g>
    <path id="10" class="fil5 str6" d="M2662 4253c-4,11 -9,19 -14,24 -6,5 -12,8 -21,8 -3,0 -6,-1 -9,-2l0 -11c3,2 6,2 10,2 9,0 17,-6 22,-19l11 -26 -44 -117 11 0 36 96c1,2 1,3 2,4 0,2 0,3 1,4l0 0 3 -8 38 -96 11 0 -57 141z"/>
   </g>
   <g>
    <path id="11" class="fil5 str6" d="M2851 4232c-17,0 -30,-5 -40,-17 -10,-11 -15,-26 -15,-44 0,-19 5,-34 15,-45 11,-11 24,-17 42,-17 16,0 30,6 39,16 10,11 15,27 15,46 0,18 -5,33 -15,44 -10,12 -23,17 -41,17zm1 -113c-14,0 -25,4 -33,14 -8,9 -12,22 -12,39 0,15 4,27 12,37 8,9 19,14 33,14 14,0 25,-5 32,-14 8,-9 12,-22 12,-38 0,-17 -4,-30 -12,-39 -7,-9 -18,-13 -32,-13z"/>
   </g>
   <g>
    <path id="12" class="fil5 str6" d="M2983 4228c-6,2 -11,4 -16,4 -17,0 -26,-11 -26,-31l0 -80 -21 0 0 -9 21 0 0 -31c2,0 3,-1 5,-2 2,0 4,-1 6,-1l0 34 31 0 0 9 -31 0 0 78c0,8 1,14 3,18 3,3 7,5 13,5 5,0 10,-1 15,-4l0 10z"/>
   </g>
   <g>
    <path id="13" class="fil5 str6" d="M3061 4123c-3,-3 -7,-4 -12,-4 -9,0 -17,5 -23,14 -7,10 -10,24 -10,41l0 55 -10 0 0 -117 10 0 0 26 1 0c2,-9 7,-16 12,-21 6,-5 13,-8 21,-8 4,0 8,1 11,3l0 11z"/>
   </g>
   <g>
    <path id="14" class="fil5 str6" d="M3126 4232c-17,0 -31,-5 -41,-17 -10,-11 -15,-26 -15,-44 0,-19 5,-34 16,-45 10,-11 24,-17 41,-17 17,0 30,6 40,16 10,11 14,27 14,46 0,18 -4,33 -14,44 -10,12 -24,17 -41,17zm1 -113c-14,0 -25,4 -33,14 -9,9 -13,22 -13,39 0,15 4,27 12,37 8,9 19,14 33,14 14,0 25,-5 33,-14 8,-9 11,-22 11,-38 0,-17 -3,-30 -11,-39 -8,-9 -18,-13 -32,-13z"/>
   </g>
   <g>
    <path id="15" class="fil5 str6" d="M3205 4224l0 -13c4,4 8,7 14,9 6,2 11,3 15,3 18,0 27,-8 27,-23 0,-5 -2,-10 -6,-13 -4,-4 -10,-8 -19,-12 -12,-5 -20,-10 -24,-15 -5,-5 -7,-11 -7,-19 0,-10 4,-17 11,-23 7,-6 16,-9 27,-9 10,0 19,2 26,6l0 12c-9,-6 -18,-8 -27,-8 -8,0 -14,2 -19,6 -5,4 -7,9 -7,15 0,6 2,10 5,14 3,3 9,7 19,12 13,5 21,11 26,15 4,5 6,11 6,19 0,9 -3,17 -10,23 -7,6 -17,9 -29,9 -11,0 -21,-2 -28,-8z"/>
   </g>
   <g>
    <path id="16" class="fil5 str6" d="M3360 4224l0 -13c4,4 9,7 15,9 5,2 10,3 14,3 19,0 28,-8 28,-23 0,-5 -2,-10 -6,-13 -4,-4 -11,-8 -20,-12 -11,-5 -19,-10 -23,-15 -5,-5 -7,-11 -7,-19 0,-10 3,-17 11,-23 7,-6 16,-9 27,-9 10,0 18,2 26,6l0 12c-9,-6 -18,-8 -27,-8 -8,0 -14,2 -19,6 -5,4 -7,9 -7,15 0,6 1,10 4,14 3,3 10,7 20,12 12,5 21,11 25,15 5,5 7,11 7,19 0,9 -3,17 -10,23 -7,6 -17,9 -29,9 -12,0 -21,-2 -29,-8z"/>
   </g>
   <g>
    <path id="17" class="fil5 str6" d="M3534 4224c-9,6 -19,8 -31,8 -16,0 -29,-5 -39,-16 -10,-11 -15,-26 -15,-43 0,-19 6,-34 17,-46 11,-12 25,-18 42,-18 9,0 18,2 26,6l0 11c-8,-5 -17,-7 -27,-7 -14,0 -25,5 -34,15 -8,9 -13,22 -13,38 0,15 4,27 12,37 8,9 18,14 31,14 12,0 22,-4 31,-10l0 11z"/>
   </g>
   <g>
    <path id="18" class="fil5 str6" d="M3618 4123c-4,-3 -8,-4 -13,-4 -9,0 -17,5 -23,14 -6,10 -10,24 -10,41l0 55 -10 0 0 -117 10 0 0 26 1 0c3,-9 7,-16 13,-21 5,-5 12,-8 20,-8 4,0 8,1 12,3l0 11z"/>
   </g>
   <g>
    <path id="19" class="fil5 str6" d="M3645 4082c-2,0 -5,-1 -6,-2 -2,-2 -3,-4 -3,-7 0,-2 1,-4 3,-6 2,-1 4,-2 6,-2 2,0 4,1 6,2 2,2 3,4 3,6 0,3 -1,5 -3,7 -2,1 -4,2 -6,2zm-5 147l0 -117 10 0 0 117 -10 0z"/>
   </g>
   <g>
    <path id="20" class="fil5 str6" d="M3699 4208l-1 0 0 76 -10 0 0 -172 10 0 0 24 1 0c4,-9 10,-15 18,-20 8,-5 16,-7 26,-7 15,0 26,5 35,15 8,11 12,25 12,42 0,20 -4,36 -14,48 -10,12 -22,18 -38,18 -18,0 -31,-8 -39,-24zm-1 -43l0 15c0,11 4,21 12,30 7,8 17,13 29,13 12,0 22,-6 29,-16 8,-10 11,-24 11,-40 0,-15 -3,-27 -10,-35 -7,-9 -16,-13 -28,-13 -13,0 -24,4 -31,13 -8,10 -12,20 -12,33z"/>
   </g>
   <g>
    <path id="21" class="fil5 str6" d="M3866 4228c-5,2 -11,4 -15,4 -18,0 -27,-11 -27,-31l0 -80 -21 0 0 -9 21 0 0 -31c2,0 4,-1 6,-2 2,0 3,-1 5,-1l0 34 31 0 0 9 -31 0 0 78c0,8 1,14 4,18 2,3 7,5 13,5 4,0 9,-1 14,-4l0 10z"/>
   </g>
   <g>
    <path id="22" class="fil5 str6" d="M3883 4224l0 -13c4,4 9,7 15,9 5,2 10,3 14,3 19,0 28,-8 28,-23 0,-5 -2,-10 -6,-13 -4,-4 -11,-8 -20,-12 -11,-5 -19,-10 -23,-15 -5,-5 -7,-11 -7,-19 0,-10 3,-17 11,-23 7,-6 16,-9 27,-9 10,0 18,2 26,6l0 12c-9,-6 -18,-8 -27,-8 -8,0 -14,2 -19,6 -5,4 -7,9 -7,15 0,6 1,10 4,14 3,3 10,7 20,12 12,5 21,11 25,15 5,5 7,11 7,19 0,9 -3,17 -10,23 -7,6 -17,9 -29,9 -12,0 -21,-2 -29,-8z"/>
   </g>
   <g>
    <path id="23" class="fil5 str6" d="M4115 4229l0 -23 0 0c-4,8 -9,14 -16,19 -8,5 -16,7 -24,7 -11,0 -20,-3 -27,-9 -6,-6 -10,-14 -10,-24 0,-20 14,-33 41,-37l36 -5c0,-26 -9,-38 -28,-38 -13,0 -26,5 -38,15l0 -12c4,-4 10,-7 18,-9 7,-3 14,-4 21,-4 12,0 21,4 28,11 7,8 10,19 10,33l0 76 -11 0zm-32 -58c-12,2 -21,4 -26,8 -5,4 -7,11 -7,20 0,7 2,12 6,17 5,4 12,7 20,7 11,0 21,-5 28,-13 8,-8 11,-19 11,-32l0 -12 -32 5z"/>
   </g>
   <g>
    <path id="24" class="fil5 str6" d="M4155 4224l0 -13c4,4 9,7 15,9 5,2 10,3 14,3 19,0 28,-8 28,-23 0,-5 -2,-10 -6,-13 -4,-4 -11,-8 -20,-12 -11,-5 -19,-10 -24,-15 -4,-5 -6,-11 -6,-19 0,-10 3,-17 11,-23 7,-6 16,-9 27,-9 10,0 18,2 26,6l0 12c-9,-6 -18,-8 -27,-8 -8,0 -14,2 -19,6 -5,4 -7,9 -7,15 0,6 1,10 4,14 3,3 10,7 20,12 12,5 21,11 25,15 5,5 7,11 7,19 0,9 -3,17 -10,23 -7,6 -17,9 -29,9 -12,0 -21,-2 -29,-8z"/>
   </g>
   <g>
    <path id="25" class="fil5 str6" d="M4258 4082c-3,0 -5,-1 -6,-2 -2,-2 -3,-4 -3,-7 0,-2 1,-4 3,-6 1,-1 4,-2 6,-2 2,0 4,1 6,2 2,2 3,4 3,6 0,3 -1,5 -3,7 -2,1 -4,2 -6,2zm-5 147l0 -117 10 0 0 117 -10 0z"/>
   </g>
   <g>
    <path id="26" class="fil5 str6" d="M4381 4229l0 -68c0,-28 -10,-42 -31,-42 -11,0 -20,4 -28,12 -7,8 -11,19 -11,31l0 67 -10 0 0 -117 10 0 0 21 1 0c8,-16 22,-24 40,-24 13,0 22,4 29,13 7,8 10,20 10,36l0 71 -10 0z"/>
   </g>
   <g>
    <path id="27" class="fil5 str6" d="M4503 4224c-9,6 -19,8 -31,8 -16,0 -29,-5 -39,-16 -10,-11 -15,-26 -15,-43 0,-19 6,-34 17,-46 11,-12 25,-18 42,-18 9,0 18,2 26,6l0 11c-8,-5 -17,-7 -27,-7 -14,0 -25,5 -34,15 -9,9 -13,22 -13,38 0,15 4,27 12,37 8,9 18,14 31,14 12,0 22,-4 31,-10l0 11z"/>
   </g>
   <g>
    <path id="28" class="fil5 str6" d="M4586 4123c-3,-3 -7,-4 -12,-4 -9,0 -17,5 -23,14 -7,10 -10,24 -10,41l0 55 -10 0 0 -117 10 0 0 26 1 0c2,-9 7,-16 13,-21 5,-5 12,-8 20,-8 4,0 8,1 11,3l0 11z"/>
   </g>
   <g>
    <path id="29" class="fil5 str6" d="M4651 4232c-17,0 -31,-5 -41,-17 -10,-11 -15,-26 -15,-44 0,-19 6,-34 16,-45 11,-11 24,-17 41,-17 17,0 30,6 40,16 10,11 15,27 15,46 0,18 -5,33 -15,44 -10,12 -24,17 -41,17zm1 -113c-14,0 -25,4 -33,14 -8,9 -13,22 -13,39 0,15 4,27 13,37 8,9 19,14 32,14 15,0 25,-5 33,-14 8,-9 12,-22 12,-38 0,-17 -4,-30 -12,-39 -7,-9 -18,-13 -32,-13z"/>
   </g>
   <g>
    <path id="30" class="fil5 str6" d="M4816 4229l0 -68c0,-28 -10,-42 -31,-42 -11,0 -20,4 -28,12 -7,8 -11,19 -11,31l0 67 -10 0 0 -117 10 0 0 21 1 0c8,-16 22,-24 40,-24 13,0 23,4 29,13 7,8 10,20 10,36l0 71 -10 0z"/>
   </g>
   <g>
    <path id="31" class="fil5 str6" d="M4909 4232c-17,0 -31,-5 -41,-17 -10,-11 -15,-26 -15,-44 0,-19 5,-34 16,-45 10,-11 24,-17 41,-17 17,0 30,6 40,16 10,11 14,27 14,46 0,18 -4,33 -14,44 -10,12 -24,17 -41,17zm1 -113c-14,0 -25,4 -33,14 -9,9 -13,22 -13,39 0,15 4,27 12,37 8,9 19,14 33,14 14,0 25,-5 33,-14 8,-9 11,-22 11,-38 0,-17 -3,-30 -11,-39 -8,-9 -18,-13 -32,-13z"/>
   </g>
   <g>
    <path id="32" class="fil5 str6" d="M4987 4224l0 -13c4,4 9,7 15,9 6,2 11,3 15,3 18,0 27,-8 27,-23 0,-5 -2,-10 -6,-13 -4,-4 -10,-8 -19,-12 -12,-5 -20,-10 -24,-15 -5,-5 -7,-11 -7,-19 0,-10 4,-17 11,-23 7,-6 16,-9 27,-9 10,0 19,2 26,6l0 12c-9,-6 -18,-8 -27,-8 -8,0 -14,2 -19,6 -5,4 -7,9 -7,15 0,6 2,10 4,14 4,3 10,7 20,12 13,5 21,11 26,15 4,5 6,11 6,19 0,9 -3,17 -10,23 -7,6 -17,9 -29,9 -11,0 -21,-2 -29,-8z"/>
   </g>
   <g>
    <path id="33" class="fil5 str6" d="M2456 4542l0 -21 -1 0c-4,7 -9,13 -17,18 -7,4 -16,6 -25,6 -15,0 -26,-5 -36,-16 -9,-10 -13,-25 -13,-43 0,-19 5,-35 15,-47 10,-11 23,-17 39,-17 17,0 30,7 37,22l1 0 0 -76 10 0 0 174 -10 0zm0 -71c0,-11 -4,-21 -11,-28 -7,-8 -16,-12 -28,-12 -12,0 -22,5 -30,15 -8,9 -12,22 -12,39 0,16 3,28 11,37 7,9 16,13 28,13 13,0 23,-4 31,-12 7,-8 11,-18 11,-30l0 -22z"/>
   </g>
   <g>
    <path id="34" class="fil5 str6" d="M2506 4484c0,16 4,29 12,38 7,9 17,13 30,13 13,0 26,-4 39,-14l0 11c-12,9 -26,13 -41,13 -15,0 -27,-5 -37,-16 -9,-11 -14,-26 -14,-46 0,-17 5,-32 15,-44 10,-11 22,-17 38,-17 15,0 26,5 34,15 7,10 11,24 11,42l0 5 -87 0zm76 -10c0,-13 -3,-24 -9,-31 -6,-8 -15,-12 -25,-12 -11,0 -21,4 -28,12 -7,7 -11,18 -13,31l75 0z"/>
   </g>
   <g>
    <path id="35" class="fil5 str6" d="M2634 4521l-1 0 0 75 -10 0 0 -171 10 0 0 24 1 0c4,-9 10,-15 18,-20 7,-5 16,-7 26,-7 14,0 26,5 34,15 9,11 13,25 13,42 0,20 -5,36 -14,48 -10,12 -23,18 -38,18 -18,0 -31,-8 -39,-24zm-1 -43l0 14c0,12 4,22 11,31 8,8 17,12 30,12 12,0 21,-5 29,-15 7,-10 11,-24 11,-41 0,-14 -3,-26 -10,-35 -7,-8 -16,-13 -28,-13 -14,0 -24,5 -32,14 -7,9 -11,20 -11,33z"/>
   </g>
   <g>
    <path id="36" class="fil5 str6" d="M2757 4484c0,16 4,29 11,38 7,9 18,13 31,13 13,0 26,-4 38,-14l0 11c-12,9 -26,13 -41,13 -15,0 -27,-5 -36,-16 -10,-11 -14,-26 -14,-46 0,-17 5,-32 14,-44 10,-11 23,-17 38,-17 15,0 26,5 34,15 8,10 12,24 12,42l0 5 -87 0zm76 -10c-1,-13 -4,-24 -10,-31 -6,-8 -14,-12 -25,-12 -11,0 -20,4 -27,12 -8,7 -12,18 -14,31l76 0z"/>
   </g>
   <g>
    <path id="37" class="fil5 str6" d="M2953 4542l0 -68c0,-28 -10,-43 -31,-43 -11,0 -20,5 -28,13 -7,8 -10,19 -10,31l0 67 -11 0 0 -117 11 0 0 21 0 0c9,-16 22,-24 40,-24 13,0 23,4 29,13 7,8 10,20 10,36l0 71 -10 0z"/>
   </g>
   <g>
    <path id="38" class="fil5 str6" d="M3082 4542l0 -21 0 0c-4,7 -10,13 -17,18 -8,4 -16,6 -26,6 -14,0 -26,-5 -35,-16 -9,-10 -14,-25 -14,-43 0,-19 5,-35 15,-47 10,-11 23,-17 39,-17 18,0 30,7 38,22l0 0 0 -76 11 0 0 174 -11 0zm0 -71c0,-11 -3,-21 -10,-28 -7,-8 -16,-12 -28,-12 -12,0 -23,5 -31,15 -8,9 -12,22 -12,39 0,16 4,28 11,37 7,9 17,13 28,13 14,0 24,-4 31,-12 8,-8 11,-18 11,-30l0 -22z"/>
   </g>
   <g>
    <path id="39" class="fil5 str6" d="M3133 4484c0,16 4,29 11,38 8,9 18,13 31,13 13,0 26,-4 39,-14l0 11c-13,9 -26,13 -41,13 -15,0 -28,-5 -37,-16 -9,-11 -14,-26 -14,-46 0,-17 5,-32 15,-44 9,-11 22,-17 38,-17 14,0 26,5 33,15 8,10 12,24 12,42l0 5 -87 0zm76 -10c0,-13 -4,-24 -10,-31 -6,-8 -14,-12 -25,-12 -11,0 -20,4 -27,12 -7,7 -12,18 -13,31l75 0z"/>
   </g>
   <g>
    <path id="40" class="fil5 str6" d="M3329 4542l0 -68c0,-28 -10,-43 -30,-43 -12,0 -21,5 -28,13 -8,8 -11,19 -11,31l0 67 -11 0 0 -117 11 0 0 21 0 0c9,-16 22,-24 40,-24 13,0 23,4 30,13 6,8 10,20 10,36l0 71 -11 0z"/>
   </g>
   <g>
    <path id="41" class="fil5 str6" d="M3523 4542l0 -21 0 0c-4,7 -10,13 -17,18 -8,4 -16,6 -26,6 -14,0 -26,-5 -35,-16 -9,-10 -14,-25 -14,-43 0,-19 5,-35 15,-47 10,-11 23,-17 39,-17 17,0 30,7 38,22l0 0 0 -76 11 0 0 174 -11 0zm0 -71c0,-11 -3,-21 -10,-28 -7,-8 -17,-12 -28,-12 -13,0 -23,5 -31,15 -8,9 -12,22 -12,39 0,16 4,28 11,37 7,9 16,13 28,13 13,0 24,-4 31,-12 7,-8 11,-18 11,-30l0 -22z"/>
   </g>
   <g>
    <path id="42" class="fil5 str6" d="M3574 4484c0,16 4,29 11,38 7,9 18,13 31,13 13,0 26,-4 38,-14l0 11c-12,9 -26,13 -41,13 -15,0 -27,-5 -36,-16 -10,-11 -14,-26 -14,-46 0,-17 5,-32 14,-44 10,-11 23,-17 38,-17 15,0 26,5 34,15 8,10 12,24 12,42l0 5 -87 0zm76 -10c-1,-13 -4,-24 -10,-31 -6,-8 -14,-12 -25,-12 -11,0 -20,4 -27,12 -8,7 -12,18 -14,31l76 0z"/>
   </g>
   <g>
    <path id="43" class="fil5 str6" d="M3757 4484c0,16 4,29 11,38 8,9 18,13 31,13 13,0 26,-4 38,-14l0 11c-12,9 -25,13 -40,13 -16,0 -28,-5 -37,-16 -9,-11 -14,-26 -14,-46 0,-17 5,-32 15,-44 9,-11 22,-17 38,-17 14,0 25,5 33,15 8,10 12,24 12,42l0 5 -87 0zm76 -10c-1,-13 -4,-24 -10,-31 -6,-8 -14,-12 -25,-12 -11,0 -20,4 -27,12 -7,7 -12,18 -14,31l76 0z"/>
   </g>
   <g>
    <polygon id="44" class="fil5 str6" points="3873,4542 3873,4368 3884,4368 3884,4542 "/>
   </g>
   <g>
    <path id="45" class="fil5 str6" d="M3946 4497c-1,-2 -2,-5 -2,-8 -1,-3 -1,-6 -1,-9 0,-4 0,-7 1,-10 1,-3 3,-6 4,-8 2,-3 4,-5 7,-8 2,-2 5,-5 8,-7 2,-3 4,-5 7,-7 2,-3 4,-5 6,-8 2,-3 3,-6 5,-9 1,-3 1,-7 1,-11 0,-4 0,-8 -2,-11 -1,-4 -3,-6 -6,-9 -2,-2 -5,-4 -9,-5 -4,-1 -7,-2 -12,-2 -7,0 -14,1 -20,4 -6,2 -12,6 -17,10l0 -12c6,-4 11,-7 17,-9 6,-2 13,-3 20,-3 6,0 11,1 16,2 5,2 9,4 13,7 3,3 6,7 8,12 2,4 3,9 3,15 0,4 0,8 -2,12 -1,4 -2,7 -4,10 -2,3 -5,6 -7,9 -3,2 -5,5 -8,7 -4,4 -7,7 -10,10 -2,3 -4,5 -6,7 -1,2 -2,5 -3,7 0,2 -1,4 -1,7 0,3 1,6 1,9 1,3 1,6 2,8l-9 0zm4 47c-3,0 -5,-1 -7,-2 -1,-2 -2,-4 -2,-7 0,-3 1,-5 2,-7 2,-1 4,-2 7,-2 3,0 5,1 7,2 1,2 2,4 2,7 0,3 -1,5 -2,7 -2,1 -4,2 -7,2z"/>
   </g>
   <path id="46" class="fil6" d="M1355 4157c1,2 1,5 2,8 0,3 1,6 1,9 0,4 -1,7 -2,10 -1,3 -2,6 -4,8 -2,3 -4,6 -6,8 -2,2 -5,5 -8,7 -2,3 -5,5 -7,7 -3,3 -5,5 -7,8 -1,3 -3,6 -4,9 -1,3 -2,7 -2,11 0,4 1,8 3,11 1,4 3,6 5,9 3,2 6,4 10,5 3,1 7,2 11,2 8,0 14,-1 20,-4 6,-2 12,-6 17,-10l0 12c-5,4 -11,7 -17,9 -6,2 -12,3 -20,3 -5,0 -11,-1 -16,-2 -4,-2 -9,-4 -12,-7 -4,-3 -7,-7 -9,-12 -2,-4 -3,-9 -3,-15 0,-4 1,-8 2,-12 1,-3 3,-7 5,-10 2,-3 4,-6 7,-9 2,-2 5,-5 7,-7 4,-4 8,-7 10,-10 3,-3 5,-5 6,-7 2,-2 3,-4 3,-6 1,-3 1,-5 1,-8 0,-3 0,-6 -1,-9 0,-3 -1,-6 -1,-8l9 0zm-4 -47c3,0 5,1 6,2 2,2 3,4 3,7 0,3 -1,5 -3,7 -1,1 -3,2 -6,2 -3,0 -5,-1 -7,-2 -2,-2 -3,-4 -3,-7 0,-3 1,-5 3,-7 2,-1 4,-2 7,-2z"/>
   <polygon id="47" class="fil6" points="1413,4229 1413,4065 1490,4065 1490,4075 1424,4075 1424,4141 1485,4141 1485,4152 1424,4152 1424,4219 1494,4219 1494,4229 "/>
   <path id="48" class="fil6" d="M1522 4224l0 -13c4,4 9,7 15,9 5,2 10,3 15,3 18,0 27,-8 27,-23 0,-5 -2,-10 -6,-13 -4,-4 -11,-8 -20,-12 -11,-5 -19,-10 -23,-15 -5,-5 -7,-11 -7,-19 0,-10 3,-17 11,-23 7,-6 16,-9 27,-9 10,0 19,2 26,6l0 12c-9,-6 -18,-8 -27,-8 -8,0 -14,2 -19,6 -5,4 -7,9 -7,15 0,6 1,10 4,14 3,3 10,7 20,12 12,5 21,11 25,15 5,5 7,11 7,19 0,9 -3,17 -10,23 -7,6 -17,9 -29,9 -12,0 -21,-2 -29,-8z"/>
   <path id="49" class="fil6" d="M1695 4208l0 0 0 76 -11 0 0 -172 11 0 0 24 0 0c4,-9 10,-15 18,-20 8,-5 17,-7 26,-7 15,0 27,5 35,15 8,11 13,25 13,42 0,20 -5,36 -15,48 -9,12 -22,18 -38,18 -17,0 -30,-8 -39,-24zm0 -43l0 15c0,11 3,21 11,30 7,8 17,13 29,13 12,0 22,-6 29,-16 8,-10 12,-24 12,-40 0,-15 -4,-27 -11,-35 -7,-9 -16,-13 -27,-13 -14,0 -25,4 -32,13 -7,10 -11,20 -11,33z"/>
   <path id="50" class="fil6" d="M1818 4171c0,16 4,29 12,38 7,9 17,14 30,14 13,0 26,-5 39,-15l0 11c-12,9 -26,13 -41,13 -15,0 -27,-5 -37,-16 -9,-11 -14,-26 -14,-46 0,-17 5,-32 15,-43 10,-12 22,-18 38,-18 15,0 26,5 34,15 8,11 11,25 11,42l0 5 -87 0zm76 -10c0,-13 -3,-24 -9,-31 -6,-8 -15,-11 -25,-11 -11,0 -21,3 -28,11 -7,7 -11,18 -13,31l75 0z"/>
   <path id="51" class="fil6" d="M2018 4284l0 -76 0 0c-9,16 -23,24 -43,24 -15,0 -27,-5 -35,-16 -9,-11 -14,-25 -14,-44 0,-19 5,-34 15,-46 11,-11 23,-17 39,-17 18,0 30,7 38,22l0 0 0 -19 11 0 0 172 -11 0zm0 -125c0,-12 -3,-21 -10,-29 -7,-8 -16,-11 -29,-11 -12,0 -22,4 -30,14 -8,9 -12,22 -12,39 0,16 4,28 11,37 7,9 16,14 28,14 13,0 24,-5 31,-13 7,-8 11,-19 11,-31l0 -20z"/>
   <path id="52" class="fil6" d="M2144 4229l0 -21 -1 0c-8,16 -20,24 -37,24 -28,0 -42,-17 -42,-52l0 -68 11 0 0 65c0,16 2,28 7,35 6,7 14,11 25,11 11,0 20,-4 27,-12 7,-9 10,-19 10,-33l0 -66 10 0 0 117 -10 0z"/>
   <path id="53" class="fil6" d="M2195 4171c0,16 3,29 11,38 7,9 18,14 31,14 13,0 26,-5 38,-15l0 11c-12,9 -26,13 -41,13 -15,0 -27,-5 -36,-16 -10,-11 -14,-26 -14,-46 0,-17 5,-32 14,-43 10,-12 23,-18 38,-18 15,0 26,5 34,15 8,11 12,25 12,42l0 5 -87 0zm76 -10c-1,-13 -4,-24 -10,-31 -6,-8 -14,-11 -25,-11 -11,0 -20,3 -27,11 -8,7 -12,18 -14,31l76 0z"/>
   <path id="54" class="fil6" d="M2391 4229l0 -68c0,-28 -10,-42 -31,-42 -11,0 -20,4 -28,12 -7,8 -11,19 -11,31l0 67 -10 0 0 -117 10 0 0 21 1 0c8,-16 22,-24 40,-24 13,0 23,4 29,13 7,8 10,20 10,36l0 71 -10 0zm4 -163c0,8 -2,14 -6,19 -3,4 -8,7 -15,7 -5,0 -11,-3 -17,-9 -5,-4 -10,-6 -14,-6 -8,0 -11,5 -11,16l-9 0c0,-8 2,-14 6,-18 3,-5 8,-7 14,-7 6,0 12,2 19,8 5,4 9,7 13,7 3,0 6,-2 8,-5 2,-2 3,-7 3,-12l9 0z"/>
   <path id="55" class="fil6" d="M2484 4232c-17,0 -31,-5 -41,-17 -10,-11 -15,-26 -15,-44 0,-19 5,-34 16,-45 10,-11 24,-17 41,-17 17,0 30,6 40,16 10,11 14,27 14,46 0,18 -4,33 -14,44 -10,12 -24,17 -41,17zm1 -113c-14,0 -25,4 -33,14 -9,9 -13,22 -13,39 0,15 4,27 12,37 8,9 19,14 33,14 14,0 25,-5 33,-14 8,-9 11,-22 11,-38 0,-17 -3,-30 -11,-39 -8,-9 -18,-13 -32,-13z"/>
   <path id="56" class="fil6" d="M2662 4253c-4,11 -9,19 -14,24 -6,5 -12,8 -21,8 -3,0 -6,-1 -9,-2l0 -11c3,2 6,2 10,2 9,0 17,-6 22,-19l11 -26 -44 -117 11 0 36 96c1,2 1,3 2,4 0,2 0,3 1,4l0 0 3 -8 38 -96 11 0 -57 141z"/>
   <path id="57" class="fil6" d="M2851 4232c-17,0 -30,-5 -40,-17 -10,-11 -15,-26 -15,-44 0,-19 5,-34 15,-45 11,-11 24,-17 42,-17 16,0 30,6 39,16 10,11 15,27 15,46 0,18 -5,33 -15,44 -10,12 -23,17 -41,17zm1 -113c-14,0 -25,4 -33,14 -8,9 -12,22 -12,39 0,15 4,27 12,37 8,9 19,14 33,14 14,0 25,-5 32,-14 8,-9 12,-22 12,-38 0,-17 -4,-30 -12,-39 -7,-9 -18,-13 -32,-13z"/>
   <path id="58" class="fil6" d="M2983 4228c-6,2 -11,4 -16,4 -17,0 -26,-11 -26,-31l0 -80 -21 0 0 -9 21 0 0 -31c2,0 3,-1 5,-2 2,0 4,-1 6,-1l0 34 31 0 0 9 -31 0 0 78c0,8 1,14 3,18 3,3 7,5 13,5 5,0 10,-1 15,-4l0 10z"/>
   <path id="59" class="fil6" d="M3061 4123c-3,-3 -7,-4 -12,-4 -9,0 -17,5 -23,14 -7,10 -10,24 -10,41l0 55 -10 0 0 -117 10 0 0 26 1 0c2,-9 7,-16 12,-21 6,-5 13,-8 21,-8 4,0 8,1 11,3l0 11z"/>
   <path id="60" class="fil6" d="M3126 4232c-17,0 -31,-5 -41,-17 -10,-11 -15,-26 -15,-44 0,-19 5,-34 16,-45 10,-11 24,-17 41,-17 17,0 30,6 40,16 10,11 14,27 14,46 0,18 -4,33 -14,44 -10,12 -24,17 -41,17zm1 -113c-14,0 -25,4 -33,14 -9,9 -13,22 -13,39 0,15 4,27 12,37 8,9 19,14 33,14 14,0 25,-5 33,-14 8,-9 11,-22 11,-38 0,-17 -3,-30 -11,-39 -8,-9 -18,-13 -32,-13z"/>
   <path id="61" class="fil6" d="M3205 4224l0 -13c4,4 8,7 14,9 6,2 11,3 15,3 18,0 27,-8 27,-23 0,-5 -2,-10 -6,-13 -4,-4 -10,-8 -19,-12 -12,-5 -20,-10 -24,-15 -5,-5 -7,-11 -7,-19 0,-10 4,-17 11,-23 7,-6 16,-9 27,-9 10,0 19,2 26,6l0 12c-9,-6 -18,-8 -27,-8 -8,0 -14,2 -19,6 -5,4 -7,9 -7,15 0,6 2,10 5,14 3,3 9,7 19,12 13,5 21,11 26,15 4,5 6,11 6,19 0,9 -3,17 -10,23 -7,6 -17,9 -29,9 -11,0 -21,-2 -28,-8z"/>
   <path id="62" class="fil6" d="M3360 4224l0 -13c4,4 9,7 15,9 5,2 10,3 14,3 19,0 28,-8 28,-23 0,-5 -2,-10 -6,-13 -4,-4 -11,-8 -20,-12 -11,-5 -19,-10 -23,-15 -5,-5 -7,-11 -7,-19 0,-10 3,-17 11,-23 7,-6 16,-9 27,-9 10,0 18,2 26,6l0 12c-9,-6 -18,-8 -27,-8 -8,0 -14,2 -19,6 -5,4 -7,9 -7,15 0,6 1,10 4,14 3,3 10,7 20,12 12,5 21,11 25,15 5,5 7,11 7,19 0,9 -3,17 -10,23 -7,6 -17,9 -29,9 -12,0 -21,-2 -29,-8z"/>
   <path id="63" class="fil6" d="M3534 4224c-9,6 -19,8 -31,8 -16,0 -29,-5 -39,-16 -10,-11 -15,-26 -15,-43 0,-19 6,-34 17,-46 11,-12 25,-18 42,-18 9,0 18,2 26,6l0 11c-8,-5 -17,-7 -27,-7 -14,0 -25,5 -34,15 -8,9 -13,22 -13,38 0,15 4,27 12,37 8,9 18,14 31,14 12,0 22,-4 31,-10l0 11z"/>
   <path id="64" class="fil6" d="M3618 4123c-4,-3 -8,-4 -13,-4 -9,0 -17,5 -23,14 -6,10 -10,24 -10,41l0 55 -10 0 0 -117 10 0 0 26 1 0c3,-9 7,-16 13,-21 5,-5 12,-8 20,-8 4,0 8,1 12,3l0 11z"/>
   <path id="65" class="fil6" d="M3645 4082c-2,0 -5,-1 -6,-2 -2,-2 -3,-4 -3,-7 0,-2 1,-4 3,-6 2,-1 4,-2 6,-2 2,0 4,1 6,2 2,2 3,4 3,6 0,3 -1,5 -3,7 -2,1 -4,2 -6,2zm-5 147l0 -117 10 0 0 117 -10 0z"/>
   <path id="66" class="fil6" d="M3699 4208l-1 0 0 76 -10 0 0 -172 10 0 0 24 1 0c4,-9 10,-15 18,-20 8,-5 16,-7 26,-7 15,0 26,5 35,15 8,11 12,25 12,42 0,20 -4,36 -14,48 -10,12 -22,18 -38,18 -18,0 -31,-8 -39,-24zm-1 -43l0 15c0,11 4,21 12,30 7,8 17,13 29,13 12,0 22,-6 29,-16 8,-10 11,-24 11,-40 0,-15 -3,-27 -10,-35 -7,-9 -16,-13 -28,-13 -13,0 -24,4 -31,13 -8,10 -12,20 -12,33z"/>
   <path id="67" class="fil6" d="M3866 4228c-5,2 -11,4 -15,4 -18,0 -27,-11 -27,-31l0 -80 -21 0 0 -9 21 0 0 -31c2,0 4,-1 6,-2 2,0 3,-1 5,-1l0 34 31 0 0 9 -31 0 0 78c0,8 1,14 4,18 2,3 7,5 13,5 4,0 9,-1 14,-4l0 10z"/>
   <path id="68" class="fil6" d="M3883 4224l0 -13c4,4 9,7 15,9 5,2 10,3 14,3 19,0 28,-8 28,-23 0,-5 -2,-10 -6,-13 -4,-4 -11,-8 -20,-12 -11,-5 -19,-10 -23,-15 -5,-5 -7,-11 -7,-19 0,-10 3,-17 11,-23 7,-6 16,-9 27,-9 10,0 18,2 26,6l0 12c-9,-6 -18,-8 -27,-8 -8,0 -14,2 -19,6 -5,4 -7,9 -7,15 0,6 1,10 4,14 3,3 10,7 20,12 12,5 21,11 25,15 5,5 7,11 7,19 0,9 -3,17 -10,23 -7,6 -17,9 -29,9 -12,0 -21,-2 -29,-8z"/>
   <path id="69" class="fil6" d="M4115 4229l0 -23 0 0c-4,8 -9,14 -16,19 -8,5 -16,7 -24,7 -11,0 -20,-3 -27,-9 -6,-6 -10,-14 -10,-24 0,-20 14,-33 41,-37l36 -5c0,-26 -9,-38 -28,-38 -13,0 -26,5 -38,15l0 -12c4,-4 10,-7 18,-9 7,-3 14,-4 21,-4 12,0 21,4 28,11 7,8 10,19 10,33l0 76 -11 0zm-32 -58c-12,2 -21,4 -26,8 -5,4 -7,11 -7,20 0,7 2,12 6,17 5,4 12,7 20,7 11,0 21,-5 28,-13 8,-8 11,-19 11,-32l0 -12 -32 5z"/>
   <path id="70" class="fil6" d="M4155 4224l0 -13c4,4 9,7 15,9 5,2 10,3 14,3 19,0 28,-8 28,-23 0,-5 -2,-10 -6,-13 -4,-4 -11,-8 -20,-12 -11,-5 -19,-10 -24,-15 -4,-5 -6,-11 -6,-19 0,-10 3,-17 11,-23 7,-6 16,-9 27,-9 10,0 18,2 26,6l0 12c-9,-6 -18,-8 -27,-8 -8,0 -14,2 -19,6 -5,4 -7,9 -7,15 0,6 1,10 4,14 3,3 10,7 20,12 12,5 21,11 25,15 5,5 7,11 7,19 0,9 -3,17 -10,23 -7,6 -17,9 -29,9 -12,0 -21,-2 -29,-8z"/>
   <path id="71" class="fil6" d="M4258 4082c-3,0 -5,-1 -6,-2 -2,-2 -3,-4 -3,-7 0,-2 1,-4 3,-6 1,-1 4,-2 6,-2 2,0 4,1 6,2 2,2 3,4 3,6 0,3 -1,5 -3,7 -2,1 -4,2 -6,2zm-5 147l0 -117 10 0 0 117 -10 0z"/>
   <path id="72" class="fil6" d="M4381 4229l0 -68c0,-28 -10,-42 -31,-42 -11,0 -20,4 -28,12 -7,8 -11,19 -11,31l0 67 -10 0 0 -117 10 0 0 21 1 0c8,-16 22,-24 40,-24 13,0 22,4 29,13 7,8 10,20 10,36l0 71 -10 0z"/>
   <path id="73" class="fil6" d="M4503 4224c-9,6 -19,8 -31,8 -16,0 -29,-5 -39,-16 -10,-11 -15,-26 -15,-43 0,-19 6,-34 17,-46 11,-12 25,-18 42,-18 9,0 18,2 26,6l0 11c-8,-5 -17,-7 -27,-7 -14,0 -25,5 -34,15 -9,9 -13,22 -13,38 0,15 4,27 12,37 8,9 18,14 31,14 12,0 22,-4 31,-10l0 11z"/>
   <path id="74" class="fil6" d="M4586 4123c-3,-3 -7,-4 -12,-4 -9,0 -17,5 -23,14 -7,10 -10,24 -10,41l0 55 -10 0 0 -117 10 0 0 26 1 0c2,-9 7,-16 13,-21 5,-5 12,-8 20,-8 4,0 8,1 11,3l0 11z"/>
   <path id="75" class="fil6" d="M4651 4232c-17,0 -31,-5 -41,-17 -10,-11 -15,-26 -15,-44 0,-19 6,-34 16,-45 11,-11 24,-17 41,-17 17,0 30,6 40,16 10,11 15,27 15,46 0,18 -5,33 -15,44 -10,12 -24,17 -41,17zm1 -113c-14,0 -25,4 -33,14 -8,9 -13,22 -13,39 0,15 4,27 13,37 8,9 19,14 32,14 15,0 25,-5 33,-14 8,-9 12,-22 12,-38 0,-17 -4,-30 -12,-39 -7,-9 -18,-13 -32,-13z"/>
   <path id="76" class="fil6" d="M4816 4229l0 -68c0,-28 -10,-42 -31,-42 -11,0 -20,4 -28,12 -7,8 -11,19 -11,31l0 67 -10 0 0 -117 10 0 0 21 1 0c8,-16 22,-24 40,-24 13,0 23,4 29,13 7,8 10,20 10,36l0 71 -10 0z"/>
   <path id="77" class="fil6" d="M4909 4232c-17,0 -31,-5 -41,-17 -10,-11 -15,-26 -15,-44 0,-19 5,-34 16,-45 10,-11 24,-17 41,-17 17,0 30,6 40,16 10,11 14,27 14,46 0,18 -4,33 -14,44 -10,12 -24,17 -41,17zm1 -113c-14,0 -25,4 -33,14 -9,9 -13,22 -13,39 0,15 4,27 12,37 8,9 19,14 33,14 14,0 25,-5 33,-14 8,-9 11,-22 11,-38 0,-17 -3,-30 -11,-39 -8,-9 -18,-13 -32,-13z"/>
   <path id="78" class="fil6" d="M4987 4224l0 -13c4,4 9,7 15,9 6,2 11,3 15,3 18,0 27,-8 27,-23 0,-5 -2,-10 -6,-13 -4,-4 -10,-8 -19,-12 -12,-5 -20,-10 -24,-15 -5,-5 -7,-11 -7,-19 0,-10 4,-17 11,-23 7,-6 16,-9 27,-9 10,0 19,2 26,6l0 12c-9,-6 -18,-8 -27,-8 -8,0 -14,2 -19,6 -5,4 -7,9 -7,15 0,6 2,10 4,14 4,3 10,7 20,12 13,5 21,11 26,15 4,5 6,11 6,19 0,9 -3,17 -10,23 -7,6 -17,9 -29,9 -11,0 -21,-2 -29,-8z"/>
   <path id="79" class="fil6" d="M2456 4542l0 -21 -1 0c-4,7 -9,13 -17,18 -7,4 -16,6 -25,6 -15,0 -26,-5 -36,-16 -9,-10 -13,-25 -13,-43 0,-19 5,-35 15,-47 10,-11 23,-17 39,-17 17,0 30,7 37,22l1 0 0 -76 10 0 0 174 -10 0zm0 -71c0,-11 -4,-21 -11,-28 -7,-8 -16,-12 -28,-12 -12,0 -22,5 -30,15 -8,9 -12,22 -12,39 0,16 3,28 11,37 7,9 16,13 28,13 13,0 23,-4 31,-12 7,-8 11,-18 11,-30l0 -22z"/>
   <path id="80" class="fil6" d="M2506 4484c0,16 4,29 12,38 7,9 17,13 30,13 13,0 26,-4 39,-14l0 11c-12,9 -26,13 -41,13 -15,0 -27,-5 -37,-16 -9,-11 -14,-26 -14,-46 0,-17 5,-32 15,-44 10,-11 22,-17 38,-17 15,0 26,5 34,15 7,10 11,24 11,42l0 5 -87 0zm76 -10c0,-13 -3,-24 -9,-31 -6,-8 -15,-12 -25,-12 -11,0 -21,4 -28,12 -7,7 -11,18 -13,31l75 0z"/>
   <path id="81" class="fil6" d="M2634 4521l-1 0 0 75 -10 0 0 -171 10 0 0 24 1 0c4,-9 10,-15 18,-20 7,-5 16,-7 26,-7 14,0 26,5 34,15 9,11 13,25 13,42 0,20 -5,36 -14,48 -10,12 -23,18 -38,18 -18,0 -31,-8 -39,-24zm-1 -43l0 14c0,12 4,22 11,31 8,8 17,12 30,12 12,0 21,-5 29,-15 7,-10 11,-24 11,-41 0,-14 -3,-26 -10,-35 -7,-8 -16,-13 -28,-13 -14,0 -24,5 -32,14 -7,9 -11,20 -11,33z"/>
   <path id="82" class="fil6" d="M2757 4484c0,16 4,29 11,38 7,9 18,13 31,13 13,0 26,-4 38,-14l0 11c-12,9 -26,13 -41,13 -15,0 -27,-5 -36,-16 -10,-11 -14,-26 -14,-46 0,-17 5,-32 14,-44 10,-11 23,-17 38,-17 15,0 26,5 34,15 8,10 12,24 12,42l0 5 -87 0zm76 -10c-1,-13 -4,-24 -10,-31 -6,-8 -14,-12 -25,-12 -11,0 -20,4 -27,12 -8,7 -12,18 -14,31l76 0z"/>
   <path id="83" class="fil6" d="M2953 4542l0 -68c0,-28 -10,-43 -31,-43 -11,0 -20,5 -28,13 -7,8 -10,19 -10,31l0 67 -11 0 0 -117 11 0 0 21 0 0c9,-16 22,-24 40,-24 13,0 23,4 29,13 7,8 10,20 10,36l0 71 -10 0z"/>
   <path id="84" class="fil6" d="M3082 4542l0 -21 0 0c-4,7 -10,13 -17,18 -8,4 -16,6 -26,6 -14,0 -26,-5 -35,-16 -9,-10 -14,-25 -14,-43 0,-19 5,-35 15,-47 10,-11 23,-17 39,-17 18,0 30,7 38,22l0 0 0 -76 11 0 0 174 -11 0zm0 -71c0,-11 -3,-21 -10,-28 -7,-8 -16,-12 -28,-12 -12,0 -23,5 -31,15 -8,9 -12,22 -12,39 0,16 4,28 11,37 7,9 17,13 28,13 14,0 24,-4 31,-12 8,-8 11,-18 11,-30l0 -22z"/>
   <path id="85" class="fil6" d="M3133 4484c0,16 4,29 11,38 8,9 18,13 31,13 13,0 26,-4 39,-14l0 11c-13,9 -26,13 -41,13 -15,0 -28,-5 -37,-16 -9,-11 -14,-26 -14,-46 0,-17 5,-32 15,-44 9,-11 22,-17 38,-17 14,0 26,5 33,15 8,10 12,24 12,42l0 5 -87 0zm76 -10c0,-13 -4,-24 -10,-31 -6,-8 -14,-12 -25,-12 -11,0 -20,4 -27,12 -7,7 -12,18 -13,31l75 0z"/>
   <path id="86" class="fil6" d="M3329 4542l0 -68c0,-28 -10,-43 -30,-43 -12,0 -21,5 -28,13 -8,8 -11,19 -11,31l0 67 -11 0 0 -117 11 0 0 21 0 0c9,-16 22,-24 40,-24 13,0 23,4 30,13 6,8 10,20 10,36l0 71 -11 0z"/>
   <path id="87" class="fil6" d="M3523 4542l0 -21 0 0c-4,7 -10,13 -17,18 -8,4 -16,6 -26,6 -14,0 -26,-5 -35,-16 -9,-10 -14,-25 -14,-43 0,-19 5,-35 15,-47 10,-11 23,-17 39,-17 17,0 30,7 38,22l0 0 0 -76 11 0 0 174 -11 0zm0 -71c0,-11 -3,-21 -10,-28 -7,-8 -17,-12 -28,-12 -13,0 -23,5 -31,15 -8,9 -12,22 -12,39 0,16 4,28 11,37 7,9 16,13 28,13 13,0 24,-4 31,-12 7,-8 11,-18 11,-30l0 -22z"/>
   <path id="88" class="fil6" d="M3574 4484c0,16 4,29 11,38 7,9 18,13 31,13 13,0 26,-4 38,-14l0 11c-12,9 -26,13 -41,13 -15,0 -27,-5 -36,-16 -10,-11 -14,-26 -14,-46 0,-17 5,-32 14,-44 10,-11 23,-17 38,-17 15,0 26,5 34,15 8,10 12,24 12,42l0 5 -87 0zm76 -10c-1,-13 -4,-24 -10,-31 -6,-8 -14,-12 -25,-12 -11,0 -20,4 -27,12 -8,7 -12,18 -14,31l76 0z"/>
   <path id="89" class="fil6" d="M3757 4484c0,16 4,29 11,38 8,9 18,13 31,13 13,0 26,-4 38,-14l0 11c-12,9 -25,13 -40,13 -16,0 -28,-5 -37,-16 -9,-11 -14,-26 -14,-46 0,-17 5,-32 15,-44 9,-11 22,-17 38,-17 14,0 25,5 33,15 8,10 12,24 12,42l0 5 -87 0zm76 -10c-1,-13 -4,-24 -10,-31 -6,-8 -14,-12 -25,-12 -11,0 -20,4 -27,12 -7,7 -12,18 -14,31l76 0z"/>
   <polygon id="90" class="fil6" points="3873,4542 3873,4368 3884,4368 3884,4542 "/>
   <path id="91" class="fil6" d="M3946 4497c-1,-2 -2,-5 -2,-8 -1,-3 -1,-6 -1,-9 0,-4 0,-7 1,-10 1,-3 3,-6 4,-8 2,-3 4,-5 7,-8 2,-2 5,-5 8,-7 2,-3 4,-5 7,-7 2,-3 4,-5 6,-8 2,-3 3,-6 5,-9 1,-3 1,-7 1,-11 0,-4 0,-8 -2,-11 -1,-4 -3,-6 -6,-9 -2,-2 -5,-4 -9,-5 -4,-1 -7,-2 -12,-2 -7,0 -14,1 -20,4 -6,2 -12,6 -17,10l0 -12c6,-4 11,-7 17,-9 6,-2 13,-3 20,-3 6,0 11,1 16,2 5,2 9,4 13,7 3,3 6,7 8,12 2,4 3,9 3,15 0,4 0,8 -2,12 -1,4 -2,7 -4,10 -2,3 -5,6 -7,9 -3,2 -5,5 -8,7 -4,4 -7,7 -10,10 -2,3 -4,5 -6,7 -1,2 -2,5 -3,7 0,2 -1,4 -1,7 0,3 1,6 1,9 1,3 1,6 2,8l-9 0zm4 47c-3,0 -5,-1 -7,-2 -1,-2 -2,-4 -2,-7 0,-3 1,-5 2,-7 2,-1 4,-2 7,-2 3,0 5,1 7,2 1,2 2,4 2,7 0,3 -1,5 -2,7 -2,1 -4,2 -7,2z"/>
   <circle class="fil7 str3" cx="3181" cy="6306" r="139"/>
   <g>
    <line class="fil0 str2" x1="3181" y1="5153" x2="3181" y2= "6167" />
   </g>
   <g>
    <path class="fil5 str7" d="M4409 3580l0 -13c12,7 24,11 36,11 13,0 23,-2 29,-8 7,-5 10,-13 10,-22 0,-9 -2,-15 -6,-20 -5,-5 -15,-12 -30,-21 -16,-10 -27,-18 -31,-24 -5,-7 -7,-14 -7,-23 0,-12 5,-21 14,-30 9,-8 21,-12 36,-12 10,0 19,2 29,5l0 12c-9,-4 -20,-6 -31,-6 -11,0 -20,2 -26,8 -7,6 -10,13 -10,22 0,8 2,15 7,20 4,5 14,12 29,20 15,9 25,17 30,23 5,7 8,15 8,24 0,12 -4,23 -13,31 -9,8 -21,12 -37,12 -6,0 -12,-1 -20,-3 -7,-2 -13,-4 -17,-6z"/>
   </g>
   <g>
    <path id="1" class="fil5 str7" d="M4534 3439c-2,0 -4,-1 -6,-3 -2,-2 -3,-4 -3,-6 0,-3 1,-5 3,-7 2,-1 4,-2 6,-2 2,0 5,1 6,2 2,2 3,4 3,7 0,2 -1,4 -3,6 -1,2 -3,3 -6,3zm-5 147l0 -118 11 0 0 118 -11 0z"/>
   </g>
   <path id="2" class="fil6" d="M4409 3580l0 -13c12,7 24,11 36,11 13,0 23,-2 29,-8 7,-5 10,-13 10,-22 0,-9 -2,-15 -6,-20 -5,-5 -15,-12 -30,-21 -16,-10 -27,-18 -31,-24 -5,-7 -7,-14 -7,-23 0,-12 5,-21 14,-30 9,-8 21,-12 36,-12 10,0 19,2 29,5l0 12c-9,-4 -20,-6 -31,-6 -11,0 -20,2 -26,8 -7,6 -10,13 -10,22 0,8 2,15 7,20 4,5 14,12 29,20 15,9 25,17 30,23 5,7 8,15 8,24 0,12 -4,23 -13,31 -9,8 -21,12 -37,12 -6,0 -12,-1 -20,-3 -7,-2 -13,-4 -17,-6z"/>
   <path id="3" class="fil6" d="M4534 3439c-2,0 -4,-1 -6,-3 -2,-2 -3,-4 -3,-6 0,-3 1,-5 3,-7 2,-1 4,-2 6,-2 2,0 5,1 6,2 2,2 3,4 3,7 0,2 -1,4 -3,6 -1,2 -3,3 -6,3zm-5 147l0 -118 11 0 0 118 -11 0z"/>
   <g>
    <path class="fil5 str8" d="M1762 2182l0 -13c12,8 24,12 36,12 13,0 22,-3 29,-8 7,-6 10,-13 10,-23 0,-8 -2,-15 -7,-20 -4,-5 -14,-12 -29,-20 -16,-10 -27,-18 -31,-25 -5,-6 -7,-14 -7,-22 0,-12 4,-22 13,-30 9,-8 21,-12 37,-12 9,0 19,1 29,5l0 12c-10,-5 -20,-7 -31,-7 -11,0 -20,3 -27,9 -6,5 -9,12 -9,21 0,9 2,15 6,20 5,5 14,12 29,21 16,8 26,16 31,23 5,7 8,14 8,23 0,13 -5,23 -13,31 -9,8 -22,12 -38,12 -5,0 -12,-1 -19,-3 -7,-1 -13,-3 -17,-6z"/>
   </g>
   <g>
    <path id="1" class="fil5 str8" d="M1887 2041c-2,0 -4,-1 -6,-3 -2,-1 -3,-3 -3,-6 0,-2 1,-4 3,-6 2,-2 4,-2 6,-2 2,0 4,0 6,2 2,1 3,3 3,6 0,2 -1,5 -3,6 -2,2 -4,3 -6,3zm-5 147l0 -117 10 0 0 117 -10 0z"/>
   </g>
   <path id="2" class="fil6" d="M1762 2182l0 -13c12,8 24,12 36,12 13,0 22,-3 29,-8 7,-6 10,-13 10,-23 0,-8 -2,-15 -7,-20 -4,-5 -14,-12 -29,-20 -16,-10 -27,-18 -31,-25 -5,-6 -7,-14 -7,-22 0,-12 4,-22 13,-30 9,-8 21,-12 37,-12 9,0 19,1 29,5l0 12c-10,-5 -20,-7 -31,-7 -11,0 -20,3 -27,9 -6,5 -9,12 -9,21 0,9 2,15 6,20 5,5 14,12 29,21 16,8 26,16 31,23 5,7 8,14 8,23 0,13 -5,23 -13,31 -9,8 -22,12 -38,12 -5,0 -12,-1 -19,-3 -7,-1 -13,-3 -17,-6z"/>
   <path id="3" class="fil6" d="M1887 2041c-2,0 -4,-1 -6,-3 -2,-1 -3,-3 -3,-6 0,-2 1,-4 3,-6 2,-2 4,-2 6,-2 2,0 4,0 6,2 2,1 3,3 3,6 0,2 -1,5 -3,6 -2,2 -4,3 -6,3zm-5 147l0 -117 10 0 0 117 -10 0z"/>
   <g>
    <path class="fil5 str9" d="M3114 5658l0 -13c12,7 24,11 36,11 13,0 23,-3 30,-8 6,-5 10,-13 10,-22 0,-9 -3,-16 -7,-21 -5,-5 -14,-11 -29,-20 -17,-10 -27,-18 -32,-24 -4,-7 -7,-15 -7,-23 0,-12 5,-22 14,-30 9,-8 21,-12 36,-12 10,0 20,2 29,5l0 12c-9,-4 -19,-7 -30,-7 -12,0 -20,3 -27,9 -7,6 -10,13 -10,21 0,9 2,16 7,21 4,5 14,11 29,20 15,9 26,16 31,23 5,7 7,15 7,23 0,13 -4,23 -13,31 -9,8 -21,12 -37,12 -6,0 -12,-1 -20,-2 -7,-2 -13,-4 -17,-6z"/>
   </g>
   <g>
    <path id="1" class="fil5 str9" d="M3239 5516c-2,0 -4,-1 -6,-2 -1,-2 -2,-4 -2,-7 0,-2 1,-4 2,-6 2,-1 4,-2 6,-2 3,0 5,1 7,2 1,2 2,4 2,6 0,3 -1,5 -2,7 -2,1 -4,2 -7,2zm-5 147l0 -117 11 0 0 117 -11 0z"/>
   </g>
   <path id="2" class="fil6" d="M3114 5658l0 -13c12,7 24,11 36,11 13,0 23,-3 30,-8 6,-5 10,-13 10,-22 0,-9 -3,-16 -7,-21 -5,-5 -14,-11 -29,-20 -17,-10 -27,-18 -32,-24 -4,-7 -7,-15 -7,-23 0,-12 5,-22 14,-30 9,-8 21,-12 36,-12 10,0 20,2 29,5l0 12c-9,-4 -19,-7 -30,-7 -12,0 -20,3 -27,9 -7,6 -10,13 -10,21 0,9 2,16 7,21 4,5 14,11 29,20 15,9 26,16 31,23 5,7 7,15 7,23 0,13 -4,23 -13,31 -9,8 -21,12 -37,12 -6,0 -12,-1 -20,-2 -7,-2 -13,-4 -17,-6z"/>
   <path id="3" class="fil6" d="M3239 5516c-2,0 -4,-1 -6,-2 -1,-2 -2,-4 -2,-7 0,-2 1,-4 2,-6 2,-1 4,-2 6,-2 3,0 5,1 7,2 1,2 2,4 2,6 0,3 -1,5 -2,7 -2,1 -4,2 -7,2zm-5 147l0 -117 11 0 0 117 -11 0z"/>
   <g>
    <path class="fil5 str10" d="M652 1821l0 -24 -1 0c-3,8 -9,14 -16,19 -7,5 -15,7 -24,7 -11,0 -20,-3 -26,-9 -7,-6 -10,-14 -10,-24 0,-20 14,-33 41,-37l36 -5c0,-26 -10,-38 -29,-38 -13,0 -25,5 -37,15l0 -12c4,-4 10,-7 17,-9 8,-3 15,-4 21,-4 13,0 22,4 29,11 6,8 10,19 10,33l0 77 -11 0zm-32 -59c-13,2 -21,5 -26,9 -5,4 -8,10 -8,19 0,7 2,13 7,17 5,5 11,7 19,7 12,0 21,-4 29,-13 7,-8 11,-19 11,-32l0 -12 -32 5z"/>
   </g>
   <g>
    <path id="1" class="fil5 str10" d="M692 1815l0 -12c4,3 9,6 14,8 6,2 11,3 15,3 18,0 28,-8 28,-23 0,-5 -2,-9 -6,-13 -5,-4 -11,-8 -20,-11 -11,-5 -19,-10 -24,-16 -5,-5 -7,-11 -7,-19 0,-9 4,-17 11,-23 7,-6 16,-9 27,-9 10,0 19,2 26,6l0 12c-9,-5 -18,-8 -27,-8 -8,0 -14,2 -19,6 -4,4 -7,9 -7,16 0,5 2,10 5,13 3,4 9,8 20,12 12,6 20,11 25,15 4,5 7,11 7,19 0,10 -4,17 -11,23 -7,6 -17,9 -29,9 -11,0 -21,-2 -28,-8z"/>
   </g>
   <g>
    <path id="2" class="fil5 str10" d="M818 1845c-4,10 -9,18 -14,23 -6,5 -12,8 -20,8 -4,0 -7,-1 -10,-2l0 -10c3,1 6,1 10,1 9,0 17,-6 22,-19l11 -26 -44 -117 12 0 35 96c1,2 1,3 2,5 0,1 0,2 1,3l0 0 3 -8 38 -96 11 0 -57 142z"/>
   </g>
   <g>
    <path id="3" class="fil5 str10" d="M976 1821l0 -69c0,-28 -11,-42 -31,-42 -11,0 -21,4 -28,12 -7,9 -11,19 -11,31l0 68 -10 0 0 -118 10 0 0 21 1 0c8,-16 22,-24 40,-24 13,0 22,4 29,13 7,8 10,20 10,36l0 72 -10 0z"/>
   </g>
   <g>
    <path id="4" class="fil5 str10" d="M1098 1815c-9,6 -19,8 -31,8 -16,0 -29,-5 -39,-16 -10,-11 -15,-25 -15,-43 0,-19 6,-34 17,-46 11,-12 25,-18 42,-18 9,0 18,2 26,6l0 12c-8,-6 -17,-8 -27,-8 -14,0 -25,5 -34,15 -9,10 -13,22 -13,38 0,15 4,28 12,37 8,9 18,14 31,14 12,0 22,-3 31,-10l0 11z"/>
   </g>
   <path id="5" class="fil6" d="M652 1821l0 -24 -1 0c-3,8 -9,14 -16,19 -7,5 -15,7 -24,7 -11,0 -20,-3 -26,-9 -7,-6 -10,-14 -10,-24 0,-20 14,-33 41,-37l36 -5c0,-26 -10,-38 -29,-38 -13,0 -25,5 -37,15l0 -12c4,-4 10,-7 17,-9 8,-3 15,-4 21,-4 13,0 22,4 29,11 6,8 10,19 10,33l0 77 -11 0zm-32 -59c-13,2 -21,5 -26,9 -5,4 -8,10 -8,19 0,7 2,13 7,17 5,5 11,7 19,7 12,0 21,-4 29,-13 7,-8 11,-19 11,-32l0 -12 -32 5z"/>
   <path id="6" class="fil6" d="M692 1815l0 -12c4,3 9,6 14,8 6,2 11,3 15,3 18,0 28,-8 28,-23 0,-5 -2,-9 -6,-13 -5,-4 -11,-8 -20,-11 -11,-5 -19,-10 -24,-16 -5,-5 -7,-11 -7,-19 0,-9 4,-17 11,-23 7,-6 16,-9 27,-9 10,0 19,2 26,6l0 12c-9,-5 -18,-8 -27,-8 -8,0 -14,2 -19,6 -4,4 -7,9 -7,16 0,5 2,10 5,13 3,4 9,8 20,12 12,6 20,11 25,15 4,5 7,11 7,19 0,10 -4,17 -11,23 -7,6 -17,9 -29,9 -11,0 -21,-2 -28,-8z"/>
   <path id="7" class="fil6" d="M818 1845c-4,10 -9,18 -14,23 -6,5 -12,8 -20,8 -4,0 -7,-1 -10,-2l0 -10c3,1 6,1 10,1 9,0 17,-6 22,-19l11 -26 -44 -117 12 0 35 96c1,2 1,3 2,5 0,1 0,2 1,3l0 0 3 -8 38 -96 11 0 -57 142z"/>
   <path id="8" class="fil6" d="M976 1821l0 -69c0,-28 -11,-42 -31,-42 -11,0 -21,4 -28,12 -7,9 -11,19 -11,31l0 68 -10 0 0 -118 10 0 0 21 1 0c8,-16 22,-24 40,-24 13,0 22,4 29,13 7,8 10,20 10,36l0 72 -10 0z"/>
   <path id="9" class="fil6" d="M1098 1815c-9,6 -19,8 -31,8 -16,0 -29,-5 -39,-16 -10,-11 -15,-25 -15,-43 0,-19 6,-34 17,-46 11,-12 25,-18 42,-18 9,0 18,2 26,6l0 12c-8,-6 -17,-8 -27,-8 -14,0 -25,5 -34,15 -9,10 -13,22 -13,38 0,15 4,28 12,37 8,9 18,14 31,14 12,0 22,-3 31,-10l0 11z"/>
   <g>
    <path class="fil5 str11" d="M5357 3206l0 -22 0 0c-4,8 -10,14 -17,18 -8,4 -16,7 -26,7 -14,0 -26,-6 -35,-16 -9,-11 -14,-25 -14,-44 0,-19 5,-34 15,-46 10,-12 23,-18 39,-18 18,0 30,8 38,22l0 0 0 -75 11 0 0 174 -11 0zm0 -72c0,-11 -3,-20 -10,-28 -7,-7 -16,-11 -28,-11 -12,0 -23,5 -31,14 -8,10 -12,23 -12,39 0,16 4,29 11,38 7,9 17,13 28,13 13,0 24,-4 31,-12 8,-9 11,-19 11,-31l0 -22z"/>
   </g>
   <g>
    <path id="1" class="fil5 str11" d="M5408 3147c0,17 4,29 11,38 8,9 18,14 31,14 13,0 26,-5 38,-15l0 12c-12,8 -25,13 -40,13 -15,0 -28,-6 -37,-17 -9,-11 -14,-26 -14,-46 0,-17 5,-31 15,-43 9,-12 22,-18 38,-18 14,0 26,6 33,16 8,10 12,24 12,42l0 4 -87 0zm76 -9c0,-14 -4,-24 -10,-32 -6,-7 -14,-11 -25,-11 -11,0 -20,4 -27,11 -7,7 -12,18 -14,32l76 0z"/>
   </g>
   <g>
    <path id="2" class="fil5 str11" d="M5576 3043c-3,-2 -7,-3 -13,-3 -15,0 -22,9 -22,29l0 19 31 0 0 10 -31 0 0 108 -10 0 0 -108 -22 0 0 -10 22 0 0 -20c0,-13 3,-22 9,-28 6,-7 14,-10 23,-10 5,0 9,1 13,2l0 11z"/>
   </g>
   <g>
    <path id="3" class="fil5 str11" d="M5592 3147c0,17 3,29 11,38 7,9 17,14 31,14 13,0 25,-5 38,-15l0 12c-12,8 -26,13 -41,13 -15,0 -27,-6 -36,-17 -10,-11 -14,-26 -14,-46 0,-17 4,-31 14,-43 10,-12 23,-18 38,-18 15,0 26,6 34,16 8,10 12,24 12,42l0 4 -87 0zm76 -9c-1,-14 -4,-24 -10,-32 -6,-7 -15,-11 -25,-11 -11,0 -20,4 -28,11 -7,7 -11,18 -13,32l76 0z"/>
   </g>
   <g>
    <path id="4" class="fil5 str11" d="M5763 3099c-3,-2 -7,-4 -12,-4 -9,0 -17,5 -24,15 -6,9 -9,23 -9,41l0 55 -10 0 0 -118 10 0 0 26 1 0c2,-9 6,-16 12,-21 6,-5 13,-7 21,-7 4,0 8,1 11,2l0 11z"/>
   </g>
   <path id="5" class="fil6" d="M5357 3206l0 -22 0 0c-4,8 -10,14 -17,18 -8,4 -16,7 -26,7 -14,0 -26,-6 -35,-16 -9,-11 -14,-25 -14,-44 0,-19 5,-34 15,-46 10,-12 23,-18 39,-18 18,0 30,8 38,22l0 0 0 -75 11 0 0 174 -11 0zm0 -72c0,-11 -3,-20 -10,-28 -7,-7 -16,-11 -28,-11 -12,0 -23,5 -31,14 -8,10 -12,23 -12,39 0,16 4,29 11,38 7,9 17,13 28,13 13,0 24,-4 31,-12 8,-9 11,-19 11,-31l0 -22z"/>
   <path id="6" class="fil6" d="M5408 3147c0,17 4,29 11,38 8,9 18,14 31,14 13,0 26,-5 38,-15l0 12c-12,8 -25,13 -40,13 -15,0 -28,-6 -37,-17 -9,-11 -14,-26 -14,-46 0,-17 5,-31 15,-43 9,-12 22,-18 38,-18 14,0 26,6 33,16 8,10 12,24 12,42l0 4 -87 0zm76 -9c0,-14 -4,-24 -10,-32 -6,-7 -14,-11 -25,-11 -11,0 -20,4 -27,11 -7,7 -12,18 -14,32l76 0z"/>
   <path id="7" class="fil6" d="M5576 3043c-3,-2 -7,-3 -13,-3 -15,0 -22,9 -22,29l0 19 31 0 0 10 -31 0 0 108 -10 0 0 -108 -22 0 0 -10 22 0 0 -20c0,-13 3,-22 9,-28 6,-7 14,-10 23,-10 5,0 9,1 13,2l0 11z"/>
   <path id="8" class="fil6" d="M5592 3147c0,17 3,29 11,38 7,9 17,14 31,14 13,0 25,-5 38,-15l0 12c-12,8 -26,13 -41,13 -15,0 -27,-6 -36,-17 -10,-11 -14,-26 -14,-46 0,-17 4,-31 14,-43 10,-12 23,-18 38,-18 15,0 26,6 34,16 8,10 12,24 12,42l0 4 -87 0zm76 -9c-1,-14 -4,-24 -10,-32 -6,-7 -15,-11 -25,-11 -11,0 -20,4 -28,11 -7,7 -11,18 -13,32l76 0z"/>
   <path id="9" class="fil6" d="M5763 3099c-3,-2 -7,-4 -12,-4 -9,0 -17,5 -24,15 -6,9 -9,23 -9,41l0 55 -10 0 0 -118 10 0 0 26 1 0c2,-9 6,-16 12,-21 6,-5 13,-7 21,-7 4,0 8,1 11,2l0 11z"/>
   <g>
    <path class="fil5 str12" d="M2823 6686c0,16 3,28 11,37 7,10 18,14 31,14 13,0 26,-5 38,-14l0 11c-12,8 -26,13 -41,13 -15,0 -27,-6 -36,-17 -10,-10 -14,-26 -14,-46 0,-17 5,-31 14,-43 10,-12 23,-17 38,-17 15,0 26,5 34,15 8,10 12,24 12,42l0 5 -87 0zm76 -10c-1,-14 -4,-24 -10,-32 -6,-7 -14,-11 -25,-11 -11,0 -20,4 -27,11 -8,8 -12,18 -14,32l76 0z"/>
   </g>
   <g>
    <path id="1" class="fil5 str12" d="M3019 6744l0 -68c0,-29 -10,-43 -31,-43 -11,0 -20,4 -28,13 -7,8 -11,18 -11,30l0 68 -10 0 0 -118 10 0 0 22 1 0c9,-16 22,-24 40,-24 13,0 23,4 29,12 7,9 10,21 10,36l0 72 -10 0z"/>
   </g>
   <g>
    <polygon id="2" class="fil5 str12" points="3129,6744 3129,6570 3140,6570 3140,6744 "/>
   </g>
   <g>
    <path id="3" class="fil5 str12" d="M3183 6597c-3,0 -5,-1 -7,-3 -1,-1 -2,-4 -2,-6 0,-3 1,-5 3,-6 1,-2 3,-3 6,-3 2,0 4,1 6,3 2,1 3,3 3,6 0,2 -1,4 -3,6 -2,2 -4,3 -6,3zm-6 147l0 -118 11 0 0 118 -11 0z"/>
   </g>
   <g>
    <path id="4" class="fil5 str12" d="M3306 6744l0 -68c0,-29 -11,-43 -31,-43 -11,0 -21,4 -28,13 -7,8 -11,18 -11,30l0 68 -10 0 0 -118 10 0 0 22 1 0c8,-16 22,-24 40,-24 13,0 22,4 29,12 7,9 10,21 10,36l0 72 -10 0z"/>
   </g>
   <g>
    <path id="5" class="fil5 str12" d="M3354 6686c0,16 4,28 11,37 8,10 18,14 31,14 13,0 26,-5 38,-14l0 11c-12,8 -25,13 -40,13 -15,0 -28,-6 -37,-17 -9,-10 -14,-26 -14,-46 0,-17 5,-31 15,-43 9,-12 22,-17 38,-17 14,0 26,5 33,15 8,10 12,24 12,42l0 5 -87 0zm76 -10c0,-14 -4,-24 -10,-32 -6,-7 -14,-11 -25,-11 -11,0 -20,4 -27,11 -7,8 -12,18 -13,32l75 0z"/>
   </g>
   <g>
    <path id="6" class="fil5 str12" d="M3540 6744l0 -24 0 0c-4,8 -9,15 -16,20 -7,4 -15,7 -24,7 -11,0 -20,-3 -27,-10 -6,-6 -9,-14 -9,-23 0,-21 13,-33 40,-38l36 -5c0,-25 -9,-38 -28,-38 -13,0 -26,5 -38,16l0 -13c5,-3 10,-6 18,-9 7,-2 14,-3 21,-3 12,0 22,3 28,11 7,7 10,18 10,32l0 77 -11 0zm-32 -59c-12,2 -21,5 -26,9 -5,4 -7,10 -7,19 0,7 2,13 7,17 4,5 11,7 19,7 11,0 21,-4 28,-12 8,-9 11,-20 11,-33l0 -11 -32 4z"/>
   </g>
   <path id="7" class="fil6" d="M2823 6686c0,16 3,28 11,37 7,10 18,14 31,14 13,0 26,-5 38,-14l0 11c-12,8 -26,13 -41,13 -15,0 -27,-6 -36,-17 -10,-10 -14,-26 -14,-46 0,-17 5,-31 14,-43 10,-12 23,-17 38,-17 15,0 26,5 34,15 8,10 12,24 12,42l0 5 -87 0zm76 -10c-1,-14 -4,-24 -10,-32 -6,-7 -14,-11 -25,-11 -11,0 -20,4 -27,11 -8,8 -12,18 -14,32l76 0z"/>
   <path id="8" class="fil6" d="M3019 6744l0 -68c0,-29 -10,-43 -31,-43 -11,0 -20,4 -28,13 -7,8 -11,18 -11,30l0 68 -10 0 0 -118 10 0 0 22 1 0c9,-16 22,-24 40,-24 13,0 23,4 29,12 7,9 10,21 10,36l0 72 -10 0z"/>
   <polygon id="9" class="fil6" points="3129,6744 3129,6570 3140,6570 3140,6744 "/>
   <path id="10" class="fil6" d="M3183 6597c-3,0 -5,-1 -7,-3 -1,-1 -2,-4 -2,-6 0,-3 1,-5 3,-6 1,-2 3,-3 6,-3 2,0 4,1 6,3 2,1 3,3 3,6 0,2 -1,4 -3,6 -2,2 -4,3 -6,3zm-6 147l0 -118 11 0 0 118 -11 0z"/>
   <path id="11" class="fil6" d="M3306 6744l0 -68c0,-29 -11,-43 -31,-43 -11,0 -21,4 -28,13 -7,8 -11,18 -11,30l0 68 -10 0 0 -118 10 0 0 22 1 0c8,-16 22,-24 40,-24 13,0 22,4 29,12 7,9 10,21 10,36l0 72 -10 0z"/>
   <path id="12" class="fil6" d="M3354 6686c0,16 4,28 11,37 8,10 18,14 31,14 13,0 26,-5 38,-14l0 11c-12,8 -25,13 -40,13 -15,0 -28,-6 -37,-17 -9,-10 -14,-26 -14,-46 0,-17 5,-31 15,-43 9,-12 22,-17 38,-17 14,0 26,5 33,15 8,10 12,24 12,42l0 5 -87 0zm76 -10c0,-14 -4,-24 -10,-32 -6,-7 -14,-11 -25,-11 -11,0 -20,4 -27,11 -7,8 -12,18 -13,32l75 0z"/>
   <path id="13" class="fil6" d="M3540 6744l0 -24 0 0c-4,8 -9,15 -16,20 -7,4 -15,7 -24,7 -11,0 -20,-3 -27,-10 -6,-6 -9,-14 -9,-23 0,-21 13,-33 40,-38l36 -5c0,-25 -9,-38 -28,-38 -13,0 -26,5 -38,16l0 -13c5,-3 10,-6 18,-9 7,-2 14,-3 21,-3 12,0 22,3 28,11 7,7 10,18 10,32l0 77 -11 0zm-32 -59c-12,2 -21,5 -26,9 -5,4 -7,10 -7,19 0,7 2,13 7,17 4,5 11,7 19,7 11,0 21,-4 28,-12 8,-9 11,-20 11,-33l0 -11 -32 4z"/>
  </g>
  <rect class="fil0" width="6338" height="7277"/>
 </g>
</svg>
